<svg viewBox="0 0 16 16" xmlns="http://www.w3.org/2000/svg" xmlns:xlink="http://www.w3.org/1999/xlink" width="16.000000" height="16.000000" fill="none" customFrame="#000000">
	<g id="building 1">
		<g id="Group">
			<g id="Group">
				<g id="Group">
					<path id="Vector" d="M15.7333 15.4667L14.1333 15.4667L14.1333 6.66667C14.1333 6.5194 14.0139 6.4 13.8667 6.4L10.1333 6.4L10.1333 0.266667C10.1333 0.1194 10.0139 0 9.86667 0L2.93333 0C2.78607 0 2.66667 0.1194 2.66667 0.266667L2.66667 15.4667L0.266667 15.4667C0.1194 15.4667 0 15.5861 0 15.7333C0 15.8806 0.1194 16 0.266667 16L15.7333 16C15.8806 16 16 15.8806 16 15.7333C16 15.5861 15.8806 15.4667 15.7333 15.4667ZM5.6 15.4667L4.53333 15.4667L4.53333 13.0667C4.53333 12.9194 4.65273 12.8 4.8 12.8L5.33333 12.8C5.4806 12.8 5.6 12.9194 5.6 13.0667L5.6 15.4667ZM6.66667 6.66667L6.66667 15.4667L6.13333 15.4667L6.13333 13.0667C6.13333 12.6248 5.77517 12.2667 5.33333 12.2667L4.8 12.2667C4.35817 12.2667 4 12.6248 4 13.0667L4 15.4667L3.2 15.4667L3.2 0.533333L9.6 0.533333L9.6 6.4L6.93333 6.4C6.78607 6.4 6.66667 6.5194 6.66667 6.66667ZM13.6 15.4667L7.2 15.4667L7.2 6.93333L13.6 6.93333L13.6 15.4667Z" fill="rgb(132,130,154)" fill-rule="nonzero" transform="matrix(-1,0,0,1,16,0)" />
					<path id="Vector" d="M1.86667 0L0.266667 0C0.1194 0 0 0.1194 0 0.266667L0 1.86667C0 2.01393 0.1194 2.13333 0.266667 2.13333L1.86667 2.13333C2.01393 2.13333 2.13333 2.01393 2.13333 1.86667L2.13333 0.266667C2.13333 0.1194 2.01393 0 1.86667 0ZM1.6 1.6L0.533333 1.6L0.533333 0.533333L1.6 0.533333L1.6 1.6Z" fill="rgb(132,130,154)" fill-rule="nonzero" transform="matrix(-1,0,0,1,9.33325,3.7334)" />
					<path id="Vector" d="M1.86667 0L0.266667 0C0.1194 0 0 0.1194 0 0.266667L0 1.86667C0 2.01393 0.1194 2.13333 0.266667 2.13333L1.86667 2.13333C2.01393 2.13333 2.13333 2.01393 2.13333 1.86667L2.13333 0.266667C2.13333 0.1194 2.01393 0 1.86667 0ZM1.6 1.6L0.533333 1.6L0.533333 0.533333L1.6 0.533333L1.6 1.6Z" fill="rgb(132,130,154)" fill-rule="nonzero" transform="matrix(-1,0,0,1,9.33325,1.06665)" />
					<path id="Vector" d="M1.86667 0L0.266667 0C0.1194 0 0 0.1194 0 0.266667L0 1.86667C0 2.01393 0.1194 2.13333 0.266667 2.13333L1.86667 2.13333C2.01393 2.13333 2.13333 2.01393 2.13333 1.86667L2.13333 0.266667C2.13333 0.1194 2.01393 0 1.86667 0ZM1.6 1.6L0.533333 1.6L0.533333 0.533333L1.6 0.533333L1.6 1.6Z" fill="rgb(132,130,154)" fill-rule="nonzero" transform="matrix(-1,0,0,1,12,3.7334)" />
					<path id="Vector" d="M1.86667 0L0.266667 0C0.1194 0 0 0.1194 0 0.266667L0 1.86667C0 2.01393 0.1194 2.13333 0.266667 2.13333L1.86667 2.13333C2.01393 2.13333 2.13333 2.01393 2.13333 1.86667L2.13333 0.266667C2.13333 0.1194 2.01393 0 1.86667 0ZM1.6 1.6L0.533333 1.6L0.533333 0.533333L1.6 0.533333L1.6 1.6Z" fill="rgb(132,130,154)" fill-rule="nonzero" transform="matrix(-1,0,0,1,12,1.06665)" />
					<path id="Vector" d="M1.86667 0L0.266667 0C0.1194 0 0 0.1194 0 0.266667L0 1.86667C0 2.01393 0.1194 2.13333 0.266667 2.13333L1.86667 2.13333C2.01393 2.13333 2.13333 2.01393 2.13333 1.86667L2.13333 0.266667C2.13333 0.1194 2.01393 0 1.86667 0ZM1.6 1.6L0.533333 1.6L0.533333 0.533333L1.6 0.533333L1.6 1.6Z" fill="rgb(132,130,154)" fill-rule="nonzero" transform="matrix(-1,0,0,1,12,6.3999)" />
					<path id="Vector" d="M1.86667 0L0.266667 0C0.1194 0 0 0.1194 0 0.266667L0 1.86667C0 2.01393 0.1194 2.13333 0.266667 2.13333L1.86667 2.13333C2.01393 2.13333 2.13333 2.01393 2.13333 1.86667L2.13333 0.266667C2.13333 0.1194 2.01393 0 1.86667 0ZM1.6 1.6L0.533333 1.6L0.533333 0.533333L1.6 0.533333L1.6 1.6Z" fill="rgb(132,130,154)" fill-rule="nonzero" transform="matrix(-1,0,0,1,12,9.06665)" />
					<path id="Vector" d="M0.266667 2.13333L1.86667 2.13333C2.01393 2.13333 2.13333 2.01393 2.13333 1.86667L2.13333 0.266667C2.13333 0.1194 2.01393 0 1.86667 0L0.266667 0C0.1194 0 0 0.1194 0 0.266667L0 1.86667C0 2.01393 0.1194 2.13333 0.266667 2.13333ZM0.533333 0.533333L1.6 0.533333L1.6 1.6L0.533333 1.6L0.533333 0.533333Z" fill="rgb(132,130,154)" fill-rule="nonzero" transform="matrix(-1,0,0,1,5.33325,10.1333)" />
					<path id="Vector" d="M0.266667 2.13333L1.86667 2.13333C2.01393 2.13333 2.13333 2.01393 2.13333 1.86667L2.13333 0.266667C2.13333 0.1194 2.01393 0 1.86667 0L0.266667 0C0.1194 0 0 0.1194 0 0.266667L0 1.86667C0 2.01393 0.1194 2.13333 0.266667 2.13333ZM0.533333 0.533333L1.6 0.533333L1.6 1.6L0.533333 1.6L0.533333 0.533333Z" fill="rgb(132,130,154)" fill-rule="nonzero" transform="matrix(-1,0,0,1,5.33325,7.46655)" />
					<path id="Vector" d="M0.266667 2.13333L1.86667 2.13333C2.01393 2.13333 2.13333 2.01393 2.13333 1.86667L2.13333 0.266667C2.13333 0.1194 2.01393 0 1.86667 0L0.266667 0C0.1194 0 0 0.1194 0 0.266667L0 1.86667C0 2.01393 0.1194 2.13333 0.266667 2.13333ZM0.533333 0.533333L1.6 0.533333L1.6 1.6L0.533333 1.6L0.533333 0.533333Z" fill="rgb(132,130,154)" fill-rule="nonzero" transform="matrix(-1,0,0,1,5.33325,12.8)" />
					<path id="Vector" d="M0.266667 2.13333L1.86667 2.13333C2.01393 2.13333 2.13333 2.01393 2.13333 1.86667L2.13333 0.266667C2.13333 0.1194 2.01393 0 1.86667 0L0.266667 0C0.1194 0 0 0.1194 0 0.266667L0 1.86667C0 2.01393 0.1194 2.13333 0.266667 2.13333ZM0.533333 0.533333L1.6 0.533333L1.6 1.6L0.533333 1.6L0.533333 0.533333Z" fill="rgb(132,130,154)" fill-rule="nonzero" transform="matrix(-1,0,0,1,8,10.1333)" />
					<path id="Vector" d="M0.266667 2.13333L1.86667 2.13333C2.01393 2.13333 2.13333 2.01393 2.13333 1.86667L2.13333 0.266667C2.13333 0.1194 2.01393 0 1.86667 0L0.266667 0C0.1194 0 0 0.1194 0 0.266667L0 1.86667C0 2.01393 0.1194 2.13333 0.266667 2.13333ZM0.533333 0.533333L1.6 0.533333L1.6 1.6L0.533333 1.6L0.533333 0.533333Z" fill="rgb(132,130,154)" fill-rule="nonzero" transform="matrix(-1,0,0,1,8,7.46655)" />
					<path id="Vector" d="M0.266667 2.13333L1.86667 2.13333C2.01393 2.13333 2.13333 2.01393 2.13333 1.86667L2.13333 0.266667C2.13333 0.1194 2.01393 0 1.86667 0L0.266667 0C0.1194 0 0 0.1194 0 0.266667L0 1.86667C0 2.01393 0.1194 2.13333 0.266667 2.13333ZM0.533333 0.533333L1.6 0.533333L1.6 1.6L0.533333 1.6L0.533333 0.533333Z" fill="rgb(132,130,154)" fill-rule="nonzero" transform="matrix(-1,0,0,1,8,12.8)" />
				</g>
			</g>
		</g>
	</g>
</svg>
