<svg viewBox="0 0 47 48" xmlns="http://www.w3.org/2000/svg" xmlns:xlink="http://www.w3.org/1999/xlink" width="47.000000" height="48.000000" fill="none" customFrame="#000000">
	<g id="Group 7">
		<rect id="Rectangle 21" width="47.000000" height="48.000000" x="0.000000" y="0.000000" rx="13.000000" fill="rgb(240,187,31)" />
		<g id="selection 1">
			<g id="Group">
				<g id="Group">
					<path id="Vector" d="M21.4554 4.47549C21.752 4.47549 21.9946 4.23284 22 3.93627L22 0.544608C22 0.242647 21.7574 0 21.4554 0L18.0637 0C17.7672 0 17.5245 0.242647 17.5245 0.544608L17.5245 1.72549L4.47549 1.72549L4.47549 0.544608C4.47549 0.248039 4.23284 0.00539216 3.93627 0L0.544608 0C0.248039 0 0.00539216 0.242647 0 0.544608L0 3.93627C0 4.23284 0.242647 4.47549 0.544608 4.47549L1.72549 4.47549L1.72549 17.5245L0.544608 17.5245C0.248039 17.5245 0.00539216 17.7672 0 18.0637L0 21.4554C0 21.752 0.242647 21.9946 0.544608 22L3.93627 22C4.23284 22 4.47549 21.7574 4.47549 21.4554L4.47549 20.2745L17.5245 20.2745L17.5245 21.4554C17.5245 21.752 17.7672 21.9946 18.0637 22L21.4554 22C21.752 22 21.9946 21.7574 22 21.4554L22 18.0637C22 17.7672 21.7574 17.5245 21.4554 17.5245L20.2745 17.5245L20.2745 4.47549L21.4554 4.47549ZM1.07843 3.39706L1.07843 1.07843L3.39706 1.07843L3.39706 3.39706L1.07843 3.39706ZM3.39706 20.9216L1.07843 20.9216L1.07843 18.6029L3.39706 18.6029L3.39706 20.9216ZM17.5245 18.0637L17.5245 19.1961L4.47549 19.1961L4.47549 18.0637C4.47549 17.7672 4.23284 17.5245 3.93627 17.5245L2.80392 17.5245L2.80392 4.47549L3.93627 4.47549C4.23284 4.47549 4.47549 4.23284 4.47549 3.93627L4.47549 2.80392L17.5245 2.80392L17.5245 3.93627C17.5245 4.23284 17.7672 4.47549 18.0637 4.47549L19.1961 4.47549L19.1961 17.5245L18.0637 17.5245C17.7672 17.5245 17.5245 17.7672 17.5245 18.0637ZM20.9216 18.6029L20.9216 20.9216L18.6029 20.9216L18.6029 18.6029L20.9216 18.6029ZM18.6029 3.39706L18.6029 1.07843L20.9216 1.07843L20.9216 3.39706L18.6029 3.39706Z" fill="rgb(255,255,255)" fill-rule="nonzero" transform="matrix(-1,0,0,1,35,13)" />
				</g>
			</g>
		</g>
	</g>
</svg>
