<svg viewBox="0 0 36 36" xmlns="http://www.w3.org/2000/svg" xmlns:xlink="http://www.w3.org/1999/xlink" width="36.000000" height="36.000000" fill="none" customFrame="#000000">
	<defs>
		<clipPath id="clipPath_0">
			<rect width="14.000000" height="14.000000" x="11.000000" y="12.000000" fill="rgb(255,255,255)" />
		</clipPath>
	</defs>
	<g id="LEAF">
		<circle id="Ellipse 4" cx="18" cy="18" r="18" fill="rgb(245,245,245)" />
		<g id="leaf 1" clip-path="url(#clipPath_0)" customFrame="url(#clipPath_0)">
			<rect id="leaf 1" width="14.000000" height="14.000000" x="11.000000" y="12.000000" fill="rgb(156,160,176)" fill-opacity="0" />
			<g id="Group">
				<g id="Group">
					<path id="Vector" d="M24.6545 12.1508C24.2856 12.0429 15.2626 11.1445 12.0937 15.4257C10.6903 17.3222 10.6692 19.9221 12.0234 23.1525C11.6799 23.8655 11.3792 24.6166 11.1341 25.4091C11.0596 25.6499 11.1943 25.9052 11.4349 25.9795C11.4797 25.9934 11.5251 26 11.57 26C11.7645 26 11.945 25.8744 12.0053 25.6787C14.4205 17.8703 22.2694 14.0927 24.6763 13.1383C24.9106 13.0454 25.2236 12.3174 24.6545 12.1508Z" fill="rgb(132,130,154)" fill-rule="nonzero" />
				</g>
			</g>
			<g id="Group">
				<g id="Group">
					<path id="Vector" d="M13.4719 24.1298C14.7783 24.6778 16.0845 24.9587 17.2992 24.9587C18.391 24.9587 19.4092 24.7342 20.2866 24.279C22.0525 23.363 23.1315 21.6108 23.4071 19.2113C23.6878 16.7659 24.0373 15.2342 24.3289 14.2971C21.7336 15.4943 16.1688 18.5974 13.4719 24.1298Z" fill="rgb(132,130,154)" fill-rule="nonzero" />
				</g>
			</g>
		</g>
	</g>
</svg>
