<svg viewBox="0 0 47 48" xmlns="http://www.w3.org/2000/svg" xmlns:xlink="http://www.w3.org/1999/xlink" width="47.000000" height="48.000000" fill="none" customFrame="#000000">
	<g id="Group 12">
		<rect id="Rectangle 21" width="47.000000" height="48.000000" x="0.000000" y="0.000000" rx="13.000000" fill="rgb(241,90,43)" />
		<g id="water-sport 1">
			<path id="Vector" d="M32.8184 31.9286C32.3682 31.9378 31.926 31.809 31.5512 31.5595C31.2723 31.3772 30.9462 31.2802 30.613 31.2802C30.2797 31.2802 29.9537 31.3772 29.6747 31.5595C29.2961 31.8006 28.8566 31.9286 28.4077 31.9286C27.9589 31.9286 27.5194 31.8006 27.1408 31.5595C26.8618 31.377 26.5357 31.2799 26.2023 31.2799C25.869 31.2799 25.5429 31.377 25.2639 31.5595C24.8853 31.8006 24.4458 31.9286 23.9969 31.9286C23.5481 31.9286 23.1086 31.8006 22.7299 31.5595C22.4512 31.3771 22.1253 31.28 21.7922 31.28C21.459 31.28 21.1331 31.3771 20.8544 31.5595C20.5111 31.7876 20.1105 31.9144 19.6985 31.9253L19.6758 31.2767C19.9801 31.2695 20.2757 31.1732 20.5258 30.9997C20.9044 30.7587 21.3438 30.6307 21.7925 30.6307C22.2412 30.6307 22.6806 30.7587 23.0591 30.9997C23.3381 31.1821 23.6641 31.2792 23.9974 31.2792C24.3307 31.2792 24.6567 31.1821 24.9357 30.9997C25.3143 30.7585 25.754 30.6304 26.203 30.6304C26.6519 30.6304 27.0916 30.7585 27.4703 30.9997C27.7492 31.1821 28.0753 31.2792 28.4085 31.2792C28.7418 31.2792 29.0679 31.1821 29.3468 30.9997C29.7255 30.7588 30.165 30.6308 30.6138 30.6308C31.0626 30.6308 31.5021 30.7588 31.8808 30.9997C32.1604 31.1825 32.4872 31.2799 32.8213 31.2799C33.1554 31.2799 33.4822 31.1825 33.7618 30.9997C34.1362 30.751 34.5776 30.6224 35.027 30.6313L35.027 31.2799C34.6924 31.2708 34.3636 31.3686 34.0884 31.5592C33.7127 31.809 33.2695 31.9379 32.8184 31.9286Z" fill="rgb(255,255,255)" fill-rule="nonzero" />
			<path id="Vector" d="M15.1784 31.9287C14.7283 31.938 14.2862 31.8092 13.9116 31.5596C13.6364 31.3689 13.3076 31.2709 12.973 31.2801L12.973 30.6314C13.4231 30.6221 13.8654 30.7509 14.2401 31.0005C14.5151 31.1913 14.8438 31.2892 15.1784 31.2801C15.5131 31.2893 15.842 31.1912 16.117 31.0002C16.4909 30.7507 16.9324 30.622 17.3818 30.6314C17.8204 30.6216 18.2516 30.7444 18.6191 30.9839L18.2919 31.5437C18.0234 31.3631 17.7052 31.2709 17.3818 31.2801C17.0485 31.2711 16.721 31.3688 16.4471 31.559C16.0721 31.8093 15.6292 31.9383 15.1784 31.9287Z" fill="rgb(255,255,255)" fill-rule="nonzero" />
			<path id="Vector" d="M32.8193 29.6581C32.3689 29.6673 31.9264 29.5386 31.5512 29.2891C31.272 29.1066 30.9457 29.0094 30.6122 29.0094C30.2786 29.0094 29.9523 29.1066 29.6731 29.2891C29.2945 29.53 28.855 29.658 28.4063 29.658C27.9575 29.658 27.518 29.53 27.1395 29.2891C26.8606 29.1067 26.5347 29.0096 26.2015 29.0096C25.8683 29.0096 25.5424 29.1067 25.2636 29.2891C24.885 29.5301 24.4455 29.6582 23.9967 29.6582C23.548 29.6582 23.1085 29.5301 22.7299 29.2891C22.4511 29.1067 22.1252 29.0096 21.792 29.0096C21.4588 29.0096 21.1329 29.1067 20.854 29.2891C20.4794 29.5387 20.0373 29.6675 19.5872 29.6581C19.1372 29.6675 18.695 29.5387 18.3204 29.2891C18.0455 29.0983 17.7169 29.0004 17.3825 29.0095C17.0481 29.0004 16.7196 29.0984 16.4449 29.2891C16.0708 29.5384 15.6294 29.6672 15.18 29.6581C14.7298 29.6675 14.2876 29.5387 13.9129 29.2891C13.6374 29.0979 13.3081 29 12.973 29.0095L12.973 28.3608C13.423 28.3515 13.8651 28.4804 14.2398 28.7299C14.5149 28.9207 14.8437 29.0186 15.1784 29.0095C15.5127 29.0186 15.8412 28.9206 16.116 28.7299C16.49 28.4806 16.9314 28.3518 17.3809 28.3608C17.8313 28.3513 18.2738 28.4801 18.6486 28.7299C18.9236 28.9207 19.2524 29.0187 19.5869 29.0095C19.9215 29.0187 20.2502 28.9207 20.5252 28.7299C20.9037 28.4888 21.3432 28.3608 21.792 28.3608C22.2408 28.3608 22.6803 28.4888 23.0588 28.7299C23.3377 28.9123 23.6637 29.0094 23.9969 29.0094C24.3301 29.0094 24.6561 28.9123 24.935 28.7299C25.3136 28.4888 25.753 28.3608 26.2018 28.3608C26.6506 28.3608 27.0901 28.4888 27.4686 28.7299C27.7475 28.9123 28.0735 29.0094 28.4067 29.0094C28.74 29.0094 29.066 28.9123 29.3449 28.7299C29.7238 28.4889 30.1636 28.3609 30.6126 28.3609C31.0617 28.3609 31.5015 28.4889 31.8804 28.7299C32.1598 28.9123 32.4862 29.0093 32.8198 29.0093C33.1534 29.0093 33.4799 28.9123 33.7592 28.7299C34.1343 28.4805 34.5767 28.3517 35.027 28.3608L35.027 29.0095C34.6917 29 34.3622 29.098 34.0865 29.2891C33.7116 29.5384 33.2695 29.6671 32.8193 29.6581Z" fill="rgb(255,255,255)" fill-rule="nonzero" />
			<path id="Vector" d="M32.8184 27.3883C32.3683 27.3975 31.9261 27.2687 31.5513 27.0192C31.2762 26.8284 30.9473 26.7305 30.6127 26.7396C30.3671 26.7312 30.1232 26.7835 29.9028 26.892L29.6167 26.3083C29.9263 26.1565 30.268 26.0816 30.6127 26.09C31.0634 26.0808 31.5061 26.21 31.8811 26.46C32.1608 26.6428 32.4876 26.7402 32.8217 26.7402C33.1558 26.7402 33.4826 26.6428 33.7622 26.46C34.1364 26.2111 34.5777 26.0823 35.0271 26.091L35.0271 26.7396C34.6925 26.7304 34.3637 26.8283 34.0885 27.0188C33.7128 27.2687 33.2696 27.3976 32.8184 27.3883Z" fill="rgb(255,255,255)" fill-rule="nonzero" />
			<path id="Vector" d="M28.4043 27.3881C27.9549 27.3976 27.5134 27.2688 27.1395 27.0194C26.8605 26.8369 26.5344 26.7397 26.201 26.7397C25.8677 26.7397 25.5416 26.8369 25.2626 27.0194C24.884 27.2604 24.4444 27.3884 23.9956 27.3884C23.5468 27.3884 23.1073 27.2604 22.7286 27.0194C22.4497 26.837 22.1236 26.7399 21.7904 26.7399C21.4571 26.7399 21.131 26.837 20.8521 27.0194C20.4775 27.2685 20.0357 27.3972 19.5859 27.3881C19.1359 27.3974 18.6938 27.2686 18.3191 27.019C18.044 26.8283 17.7152 26.7304 17.3805 26.7395C17.0472 26.7305 16.7197 26.8282 16.4458 27.0184C16.0711 27.2684 15.6287 27.3975 15.1784 27.3881C14.7283 27.3974 14.2862 27.2686 13.9116 27.019C13.6364 26.8283 13.3076 26.7304 12.973 26.7395L12.973 26.0908C13.4231 26.0815 13.8654 26.2103 14.2401 26.4599C14.5151 26.6507 14.8438 26.7486 15.1784 26.7395C15.5131 26.7487 15.842 26.6506 16.117 26.4596C16.4909 26.2101 16.9324 26.0814 17.3818 26.0908C17.8319 26.0815 18.274 26.2103 18.6486 26.4599C18.9236 26.6507 19.2523 26.7486 19.5869 26.7395C19.9216 26.7486 20.2504 26.6506 20.5255 26.4599C20.9041 26.2189 21.3436 26.0908 21.7925 26.0908C22.2413 26.0908 22.6808 26.2189 23.0594 26.4599C23.3384 26.6423 23.6644 26.7394 23.9977 26.7394C24.331 26.7394 24.657 26.6423 24.936 26.4599C25.3147 26.2187 25.7543 26.0905 26.2033 26.0905C26.6523 26.0905 27.0919 26.2187 27.4706 26.4599C27.7563 26.6521 28.0952 26.7498 28.4393 26.7391C28.4644 26.7395 28.4894 26.7382 28.5143 26.7352L28.6005 27.3781C28.5354 27.3857 28.4699 27.389 28.4043 27.3881Z" fill="rgb(255,255,255)" fill-rule="nonzero" />
			<path id="Vector" d="M32.8193 25.1176C32.3689 25.1268 31.9264 24.998 31.5512 24.7485C31.272 24.5661 30.9457 24.4689 30.6122 24.4689C30.2786 24.4689 29.9523 24.5661 29.6731 24.7485C29.2945 24.9895 28.855 25.1175 28.4063 25.1175C27.9575 25.1175 27.518 24.9895 27.1395 24.7485C26.8606 24.5662 26.5347 24.4691 26.2015 24.4691C25.8683 24.4691 25.5424 24.5662 25.2636 24.7485C24.885 24.9896 24.4455 25.1176 23.9967 25.1176C23.548 25.1176 23.1085 24.9896 22.7299 24.7485C22.4511 24.5662 22.1252 24.4691 21.792 24.4691C21.4588 24.4691 21.1329 24.5662 20.854 24.7485C20.4794 24.9982 20.0373 25.127 19.5872 25.1176C19.1372 25.127 18.695 24.9982 18.3204 24.7485C18.0455 24.5578 17.7169 24.4598 17.3825 24.469C17.0481 24.4599 16.7196 24.5578 16.4449 24.7485C16.0708 24.9979 15.6294 25.1267 15.18 25.1176C14.7298 25.127 14.2876 24.9982 13.9129 24.7485C13.6374 24.5574 13.3081 24.4594 12.973 24.469L12.973 23.8203C13.423 23.811 13.8651 23.9398 14.2398 24.1894C14.5149 24.3801 14.8437 24.4781 15.1784 24.469C15.5127 24.4781 15.8412 24.3801 16.116 24.1894C16.49 23.9401 16.9314 23.8113 17.3809 23.8203C17.8313 23.8108 18.2738 23.9396 18.6486 24.1894C18.9236 24.3802 19.2524 24.4781 19.5869 24.469C19.9215 24.4781 20.2502 24.3802 20.5252 24.1894C20.9037 23.9483 21.3432 23.8202 21.792 23.8202C22.2408 23.8202 22.6803 23.9483 23.0588 24.1894C23.3377 24.3718 23.6637 24.4689 23.9969 24.4689C24.3301 24.4689 24.6561 24.3718 24.935 24.1894C25.3136 23.9483 25.753 23.8202 26.2018 23.8202C26.6506 23.8202 27.0901 23.9483 27.4686 24.1894C27.7475 24.3718 28.0735 24.4689 28.4067 24.4689C28.74 24.4689 29.066 24.3718 29.3449 24.1894C29.7238 23.9484 30.1636 23.8204 30.6126 23.8204C31.0617 23.8204 31.5015 23.9484 31.8804 24.1894C32.1598 24.3717 32.4862 24.4688 32.8198 24.4688C33.1534 24.4688 33.4799 24.3717 33.7592 24.1894C34.1343 23.94 34.5767 23.8112 35.027 23.8203L35.027 24.469C34.6917 24.4595 34.3622 24.5574 34.0865 24.7485C33.7116 24.9978 33.2695 25.1266 32.8193 25.1176Z" fill="rgb(255,255,255)" fill-rule="nonzero" />
			<path id="Vector" d="M28.1977 24.8423L27.5857 24.6276C27.7433 24.1748 27.8077 23.6947 27.775 23.2163C27.7423 22.738 27.6131 22.2711 27.3953 21.844L25.1675 17.4815C25.1455 17.4384 25.1335 17.3909 25.1322 17.3426C25.1309 17.2942 25.1404 17.2462 25.1601 17.202C25.1798 17.1578 25.2091 17.1186 25.2459 17.0872C25.2827 17.0558 25.3261 17.0331 25.3728 17.0206L29.8125 15.8368C29.9572 15.799 30.0811 15.7056 30.1572 15.5768C30.2333 15.4481 30.2556 15.2946 30.2191 15.1495C30.1826 15.0045 30.0903 14.8798 29.9622 14.8025C29.8342 14.7252 29.6809 14.7015 29.5355 14.7367L24.1621 16.021C24.0473 16.0482 23.9402 16.1014 23.8492 16.1766C23.7582 16.2518 23.6857 16.3469 23.6374 16.4546C23.5891 16.5623 23.5662 16.6796 23.5705 16.7976C23.5748 16.9155 23.6063 17.0309 23.6623 17.1348L25.258 20.0991C25.2985 20.1744 25.3076 20.2627 25.2833 20.3447C25.259 20.4267 25.2033 20.4958 25.1283 20.5369L23.0688 21.6721L22.7559 21.1038L24.5338 20.1237L23.0919 17.4422C22.9887 17.2508 22.931 17.0382 22.9231 16.8209C22.9152 16.6036 22.9574 16.3874 23.0465 16.189C23.1355 15.9906 23.269 15.8154 23.4366 15.6768C23.6041 15.5382 23.8014 15.4401 24.0129 15.3899L29.3838 14.1059C29.6964 14.0269 30.0277 14.0753 30.3046 14.2406C30.5816 14.4058 30.7816 14.6743 30.8606 14.9869C30.9396 15.2996 30.8911 15.6308 30.7259 15.9078C30.5607 16.1848 30.2922 16.3847 29.9795 16.4637L25.9274 17.5437L27.9733 21.5485C28.2309 22.054 28.3836 22.6064 28.4221 23.1725C28.4607 23.7385 28.3844 24.3065 28.1977 24.8423Z" fill="rgb(255,255,255)" fill-rule="nonzero" />
			<path id="Vector" d="M4.5 0L0 0L0 0.648324L4.5 0.648324L4.5 0Z" fill="rgb(255,255,255)" fill-rule="evenodd" transform="matrix(0.875835,-0.48261,0.48261,0.875835,17.681,23.9058)" />
			<path id="Vector" d="M31.1351 22.6852C30.654 22.6852 30.1837 22.5425 29.7837 22.2752C29.3837 22.008 29.0719 21.6281 28.8878 21.1836C28.7037 20.7391 28.6555 20.25 28.7494 19.7782C28.8432 19.3064 29.0749 18.8729 29.4151 18.5328C29.7553 18.1926 30.1887 17.9609 30.6605 17.8671C31.1324 17.7732 31.6214 17.8214 32.0659 18.0055C32.5104 18.1896 32.8903 18.5013 33.1576 18.9014C33.4248 19.3014 33.5675 19.7717 33.5675 20.2527C33.5668 20.8977 33.3103 21.516 32.8543 21.972C32.3983 22.428 31.78 22.6845 31.1351 22.6852ZM31.1351 18.469C30.7823 18.469 30.4374 18.5736 30.1441 18.7696C29.8507 18.9656 29.6221 19.2442 29.4871 19.5701C29.3521 19.8961 29.3167 20.2547 29.3856 20.6007C29.4544 20.9468 29.6243 21.2646 29.8737 21.5141C30.1232 21.7635 30.441 21.9334 30.7871 22.0023C31.1331 22.0711 31.4917 22.0358 31.8177 21.9007C32.1436 21.7657 32.4222 21.5371 32.6182 21.2438C32.8142 20.9504 32.9188 20.6055 32.9188 20.2527C32.9182 19.7798 32.7301 19.3265 32.3957 18.9921C32.0613 18.6577 31.608 18.4696 31.1351 18.469Z" fill="rgb(255,255,255)" fill-rule="nonzero" />
		</g>
	</g>
</svg>
