<svg viewBox="0 0 36 36" xmlns="http://www.w3.org/2000/svg" xmlns:xlink="http://www.w3.org/1999/xlink" width="36.000000" height="36.000000" fill="none" customFrame="#000000">
	<defs>
		<clipPath id="clipPath_2">
			<rect width="14.000000" height="14.000000" x="10.000000" y="11.000000" fill="rgb(255,255,255)" />
		</clipPath>
	</defs>
	<g id="map icon">
		<circle id="Ellipse 5" cx="18" cy="18" r="18" fill="rgb(245,245,245)" />
		<g id="map 1" clip-path="url(#clipPath_2)" customFrame="url(#clipPath_2)">
			<rect id="map 1" width="14.000000" height="14.000000" x="10.000000" y="11.000000" fill="rgb(156,160,176)" fill-opacity="0" />
			<g id="Group">
				<g id="Group">
					<path id="Vector" d="M23.5009 11C23.4232 11 23.3466 11.018 23.2771 11.0527L19.4882 12.9477L15.2038 11.0432C15.1968 11.0403 15.1888 11.0397 15.1813 11.0367C15.162 11.0295 15.1423 11.0235 15.1223 11.0188C15.1024 11.0134 15.0822 11.0092 15.0618 11.0062C15.0212 11.0029 14.9804 11.0029 14.9398 11.0062C14.9194 11.0092 14.8992 11.0134 14.8793 11.0188C14.8593 11.0235 14.8396 11.0295 14.8203 11.0367C14.8128 11.0397 14.8048 11.0402 14.7978 11.0432L10.2979 13.0432C10.1172 13.1234 10.0008 13.3026 10.0009 13.5002L10.0009 24.5C10.0009 24.6692 10.0865 24.8268 10.2283 24.919C10.3702 25.0114 10.5491 25.0257 10.7038 24.957L15.0008 23.047L19.2977 24.957C19.3052 24.96 19.3132 24.957 19.3207 24.9615C19.4417 25.0157 19.5807 25.0126 19.6992 24.953C19.7072 24.9496 19.7162 24.953 19.7242 24.9475L23.7241 22.9476C23.8936 22.8629 24.0007 22.6896 24.0006 22.5L24.0006 11.5002C24.0008 11.2241 23.777 11.0001 23.5009 11ZM14.5008 22.1751L11.0008 23.7305L11.0008 13.8252L14.5008 12.2697L14.5008 22.1751ZM19.0007 23.7305L15.5008 22.1751L15.5008 12.2697L19.0007 13.8252L19.0007 23.7305ZM23.0006 22.1911L20.0007 23.691L20.0007 13.8092L23.0006 12.3092L23.0006 22.1911Z" fill="rgb(132,130,154)" fill-rule="nonzero" />
				</g>
			</g>
		</g>
	</g>
</svg>
