<svg viewBox="0 0 114.912 33.994" xmlns="http://www.w3.org/2000/svg" xmlns:xlink="http://www.w3.org/1999/xlink" width="114.911926" height="33.994019" fill="none" customFrame="#000000">
	<g id="Logo">
		<path id="Rectangle 24" d="M1 3L10.5 0L18.5 8L28.5 1L39 3L34.5 17.5L18.5 12.5L9.5 17.5L0 16L1 3Z" fill="rgb(241,165,1)" fill-rule="nonzero" transform="matrix(1,0,0,-1,73.08,31.304)" />
		<path id="Jadoo" d="M66.7377 29.21L66.7377 0L60.7117 0L60.7117 12.926Q60.4917 12.5192 60.201 12.1714Q58.4868 10.12 54.3177 10.12Q51.7234 10.12 49.6257 11.1406Q47.8922 11.9839 46.4977 13.524Q45.5371 14.6011 44.8804 15.8394L44.8804 15.8395Q43.4617 18.5146 43.4617 21.942Q43.4617 25.6378 45.0477 28.434Q45.6726 29.5358 46.5437 30.498C48.6291 32.7367 51.2817 33.856 54.5017 33.856C55.9737 33.856 57.2617 33.5647 58.3657 32.982C59.5004 32.3993 60.3284 31.6327 60.8497 30.682C60.8497 31.6633 60.9264 32.5373 61.0797 33.304L66.9217 33.304C66.7991 32.0773 66.7377 30.7127 66.7377 29.21ZM0 21.206L0 23.368Q0 26.9416 1.61707 29.4885L1.6173 29.4889L1.61732 29.4889Q2.16495 30.3513 2.898 31.096Q3.59883 31.7859 4.40653 32.3115Q6.9918 33.994 10.672 33.994Q13.5254 33.994 15.7542 32.8141L15.7543 32.814Q17.1544 32.0728 18.308 30.866Q19.5828 29.5324 20.314 27.948L20.3141 27.9479Q21.298 25.816 21.298 23.23L21.298 0.689999L14.95 0.689999L14.95 23.23Q14.95 25.0917 14.0631 26.3054L14.0631 26.3054L14.0629 26.3057Q13.92 26.5013 13.754 26.68Q13.4076 27.0679 12.9861 27.3391L12.9859 27.3392L12.9854 27.3395Q12.0077 27.968 10.626 27.968C9.27667 27.968 8.188 27.5693 7.36 26.772C6.56267 25.944 6.14867 24.7173 6.118 23.092L6.118 20.102L0 21.206ZM22.7567 27.14Q22.7567 25.1607 23.6365 23.7178Q24.0448 23.0481 24.6427 22.494Q24.7536 22.3912 24.8684 22.2928Q26.7046 20.7189 29.5187 20.286L35.0847 19.458Q36.1465 19.3145 36.5459 18.7234L36.546 18.7233Q36.7867 18.367 36.7867 17.848C36.7867 16.9893 36.4494 16.284 35.7747 15.732Q34.8087 14.904 32.9687 14.904Q31.2823 14.904 30.1918 15.7101L30.1917 15.7101L30.1917 15.7102Q30.0329 15.8275 29.8867 15.962C29.1507 16.6673 28.7367 17.5413 28.6447 18.584L23.2167 17.434Q23.2923 16.7426 23.4923 16.0893L23.4924 16.0887L23.4924 16.0887Q24.144 13.9604 26.1147 12.236Q26.3827 12.0015 26.6686 11.7914L26.6689 11.7912L26.6692 11.791Q29.1314 9.982 32.9227 9.982Q37.9827 9.982 40.3747 12.42C41.9694 14.0147 42.7667 16.0693 42.7667 18.584L42.7667 29.716C42.7667 31.0653 42.8587 32.2613 43.0427 33.304L37.4307 33.304C37.2774 32.6293 37.2007 31.7247 37.2007 30.59Q36.4013 31.8316 35.2813 32.6141Q33.3719 33.948 30.5307 33.948Q27.7561 33.948 25.8217 32.6731Q25.3188 32.3416 24.8727 31.924Q23.6131 30.7192 23.1033 29.2536L23.1033 29.2535L23.1033 29.2535Q22.7567 28.257 22.7567 27.14ZM71.3507 13.386Q72.7122 12.0244 74.3462 11.2074Q76.7971 9.982 79.8607 9.982Q82.973 9.982 85.4358 11.2467Q87.0135 12.0569 88.3247 13.386Q89.5847 14.646 90.3783 16.1518Q91.1157 17.551 91.4504 19.1624C91.9075 16.932 92.9353 15.0065 94.534 13.386Q95.8955 12.0244 97.5295 11.2074Q99.9803 9.982 103.044 9.982C106.448 9.982 109.269 11.1167 111.508 13.386Q112.768 14.646 113.562 16.1518Q114.912 18.7141 114.912 21.988Q114.912 25.2619 113.562 27.8242Q112.768 29.33 111.508 30.59Q110.197 31.9191 108.619 32.7293Q106.156 33.994 103.044 33.994C99.64 33.994 96.8033 32.8593 94.534 30.59C92.9353 28.9695 91.9075 27.044 91.4504 24.8136Q91.1157 26.425 90.3783 27.8242Q89.5847 29.33 88.3247 30.59Q87.0135 31.9191 85.4358 32.7293Q82.973 33.994 79.8607 33.994Q76.7971 33.994 74.3462 32.7686Q72.7123 31.9516 71.3507 30.59C69.112 28.3207 67.9927 25.4533 67.9927 21.988C67.9927 18.5227 69.112 15.6553 71.3507 13.386ZM75.7667 26.726C76.9013 27.8607 78.266 28.428 79.8607 28.428C81.4553 28.428 82.8047 27.8607 83.9087 26.726C85.0433 25.5913 85.6107 24.012 85.6107 21.988C85.6107 19.964 85.0433 18.3847 83.9087 17.25C82.8047 16.1153 81.4553 15.548 79.8607 15.548C78.266 15.548 76.9013 16.1153 75.7667 17.25C74.6627 18.3847 74.1107 19.964 74.1107 21.988C74.1107 24.012 74.6627 25.5913 75.7667 26.726ZM103.044 28.428C101.449 28.428 100.085 27.8607 98.95 26.726C97.846 25.5913 97.294 24.012 97.294 21.988C97.294 19.964 97.846 18.3847 98.95 17.25C100.085 16.1153 101.449 15.548 103.044 15.548C104.639 15.548 105.988 16.1153 107.092 17.25C108.227 18.3847 108.794 19.964 108.794 21.988C108.794 24.012 108.227 25.5913 107.092 26.726C105.988 27.8607 104.639 28.428 103.044 28.428ZM51.1897 26.68C50.1471 25.5147 49.6257 23.9353 49.6257 21.942C49.6257 19.9793 50.1471 18.4307 51.1897 17.296Q51.8925 16.5531 52.753 16.1344Q53.8639 15.594 55.2377 15.594Q56.6568 15.594 57.7798 16.1707Q58.5861 16.5847 59.2397 17.296C60.2824 18.4 60.8037 19.9333 60.8037 21.896C60.8037 23.8893 60.2824 25.4687 59.2397 26.634C58.1971 27.7993 56.8631 28.382 55.2377 28.382C53.5817 28.382 52.2324 27.8147 51.1897 26.68ZM34.8628 28.5741L34.8631 28.5739L34.8633 28.5737Q35.1236 28.4035 35.3607 28.198C36.3114 27.37 36.7867 26.0207 36.7867 24.15L36.7867 23.138L31.6807 23.92C29.81 24.196 28.8747 25.1467 28.8747 26.772Q28.8747 27.3207 29.0679 27.7899L29.0679 27.7899Q29.2634 28.2647 29.6567 28.658C30.178 29.1487 30.8987 29.394 31.8187 29.394Q33.6088 29.394 34.8628 28.5741Z" fill="rgb(0,0,0)" fill-rule="evenodd" />
	</g>
</svg>
