<svg viewBox="0 0 97.0098 253.003" xmlns="http://www.w3.org/2000/svg" xmlns:xlink="http://www.w3.org/1999/xlink" width="97.009766" height="253.003052" fill="none" customFrame="#000000">
	<path id="Decore" d="M8.46402 13.7374C15.4908 5.221 33.2586 -7.87298 48.1153 7.88238C62.9719 23.6377 42.9288 53.1258 31.0502 65.9005C25.1945 69.449 12.9812 75.4814 10.9736 71.2232C8.46402 65.9005 6.95827 54.7227 27.5368 45.1417C40.7539 39.4641 69.2961 33.4316 77.7282 54.7227C81.5762 63.9488 82.2455 85.3818 54.1382 97.3047L19.0042 112.741M29.0426 178.211C39.0809 186.301 60.6632 187.614 70.1996 187.259C95.8976 183.001 94.6261 161.71 90.7781 151.597C83.5505 134.138 46.6096 126.58 29.0426 124.983L28.0387 87.1915C32.8571 85.4882 52.1306 84.3527 61.1651 83.9978C98.5075 86.1269 98.1395 111.499 93.2876 123.919C83.2493 141.377 46.275 142.548 29.0426 140.951L29.0426 160.646C33.7271 162.952 49.0188 167.033 72.7091 164.904C96.3995 162.775 97.9722 140.951 95.7972 130.306C83.2493 109.547 76.9785 112.741 61.1651 109.015C48.5143 106.034 27.7867 110.257 19.0042 112.741C5.61983 113.277 -13.6202 106.895 16.4946 77.0783C26.031 72.4652 49.1192 63.1326 65.1804 62.7068C74.3822 64.6585 92.083 74.3104 89.2723 97.3047C89.6069 101.918 83.3497 113.379 55.644 122.322C49.2865 123.741 35.0655 126.686 29.0426 127.112L7.46025 130.306L19.0042 112.741M29.0426 178.211C41.0885 186.727 65.6823 207.379 67.69 221.857C68.5265 230.729 66.2847 249.216 50.6249 252.197C46.6096 252.907 36.6717 252.836 29.0426 246.874L31.0502 198.969L29.0426 178.211L29.0426 140.951M29.0426 140.951C39.9174 143.613 63.8754 150.958 72.7091 159.049C83.4166 167.92 99.1098 189.921 76.2225 206.954C69.0284 209.615 49.9221 211.744 31.0502 198.969" stroke="rgb(132,130,154)" stroke-width="1.000000" />
</svg>
