<svg viewBox="0 0 153 166" xmlns="http://www.w3.org/2000/svg" xmlns:xlink="http://www.w3.org/1999/xlink" width="153.000000" height="166.000000" fill="none" customFrame="#000000">
	<g id="Group 4">
		<path id="+" d="M11.5586 12.1299L11.5586 13.999L0.837891 13.999L0.837891 12.1299L11.5586 12.1299ZM7.19727 7.56445L7.19727 18.9512L5.20996 18.9512L5.20996 7.56445L7.19727 7.56445Z" fill="rgb(255,113,82)" fill-rule="nonzero" />
		<path id="+" d="M11.5586 47.1299L11.5586 48.999L0.837891 48.999L0.837891 47.1299L11.5586 47.1299ZM7.19727 42.5645L7.19727 53.9512L5.20996 53.9512L5.20996 42.5645L7.19727 42.5645Z" fill="rgb(229,229,229)" fill-rule="nonzero" />
		<path id="+" d="M11.5586 82.1299L11.5586 83.999L0.837891 83.999L0.837891 82.1299L11.5586 82.1299ZM7.19727 77.5645L7.19727 88.9512L5.20996 88.9512L5.20996 77.5645L7.19727 77.5645Z" fill="rgb(229,229,229)" fill-rule="nonzero" />
		<path id="+" d="M46.5586 12.1299L46.5586 13.999L35.8379 13.999L35.8379 12.1299L46.5586 12.1299ZM42.1973 7.56445L42.1973 18.9512L40.21 18.9512L40.21 7.56445L42.1973 7.56445Z" fill="rgb(229,229,229)" fill-rule="nonzero" />
		<path id="+" d="M46.5586 47.1299L46.5586 48.999L35.8379 48.999L35.8379 47.1299L46.5586 47.1299ZM42.1973 42.5645L42.1973 53.9512L40.21 53.9512L40.21 42.5645L42.1973 42.5645Z" fill="rgb(229,229,229)" fill-rule="nonzero" />
		<path id="+" d="M46.5586 82.1299L46.5586 83.999L35.8379 83.999L35.8379 82.1299L46.5586 82.1299ZM42.1973 77.5645L42.1973 88.9512L40.21 88.9512L40.21 77.5645L42.1973 77.5645Z" fill="rgb(229,229,229)" fill-rule="nonzero" />
		<path id="+" d="M46.5586 117.13L46.5586 118.999L35.8379 118.999L35.8379 117.13L46.5586 117.13ZM42.1973 112.564L42.1973 123.951L40.21 123.951L40.21 112.564L42.1973 112.564Z" fill="rgb(229,229,229)" fill-rule="nonzero" />
		<path id="+" d="M81.5586 12.1299L81.5586 13.999L70.8379 13.999L70.8379 12.1299L81.5586 12.1299ZM77.1973 7.56445L77.1973 18.9512L75.21 18.9512L75.21 7.56445L77.1973 7.56445Z" fill="rgb(229,229,229)" fill-rule="nonzero" />
		<path id="+" d="M81.5586 47.1299L81.5586 48.999L70.8379 48.999L70.8379 47.1299L81.5586 47.1299ZM77.1973 42.5645L77.1973 53.9512L75.21 53.9512L75.21 42.5645L77.1973 42.5645Z" fill="rgb(229,229,229)" fill-rule="nonzero" />
		<path id="+" d="M81.5586 82.1299L81.5586 83.999L70.8379 83.999L70.8379 82.1299L81.5586 82.1299ZM77.1973 77.5645L77.1973 88.9512L75.21 88.9512L75.21 77.5645L77.1973 77.5645Z" fill="rgb(98,70,229)" fill-rule="nonzero" />
		<path id="+" d="M81.5586 117.13L81.5586 118.999L70.8379 118.999L70.8379 117.13L81.5586 117.13ZM77.1973 112.564L77.1973 123.951L75.21 123.951L75.21 112.564L77.1973 112.564Z" fill="rgb(229,229,229)" fill-rule="nonzero" />
		<path id="+" d="M81.5586 152.13L81.5586 153.999L70.8379 153.999L70.8379 152.13L81.5586 152.13ZM77.1973 147.564L77.1973 158.951L75.21 158.951L75.21 147.564L77.1973 147.564Z" fill="rgb(229,229,229)" fill-rule="nonzero" />
		<path id="+" d="M116.559 12.1299L116.559 13.999L105.838 13.999L105.838 12.1299L116.559 12.1299ZM112.197 7.56445L112.197 18.9512L110.21 18.9512L110.21 7.56445L112.197 7.56445Z" fill="rgb(229,229,229)" fill-rule="nonzero" />
		<path id="+" d="M116.559 47.1299L116.559 48.999L105.838 48.999L105.838 47.1299L116.559 47.1299ZM112.197 42.5645L112.197 53.9512L110.21 53.9512L110.21 42.5645L112.197 42.5645Z" fill="rgb(229,229,229)" fill-rule="nonzero" />
		<path id="+" d="M116.559 82.1299L116.559 83.999L105.838 83.999L105.838 82.1299L116.559 82.1299ZM112.197 77.5645L112.197 88.9512L110.21 88.9512L110.21 77.5645L112.197 77.5645Z" fill="rgb(229,229,229)" fill-rule="nonzero" />
		<path id="+" d="M116.559 117.13L116.559 118.999L105.838 118.999L105.838 117.13L116.559 117.13ZM112.197 112.564L112.197 123.951L110.21 123.951L110.21 112.564L112.197 112.564Z" fill="rgb(229,229,229)" fill-rule="nonzero" />
		<path id="+" d="M116.559 152.13L116.559 153.999L105.838 153.999L105.838 152.13L116.559 152.13ZM112.197 147.564L112.197 158.951L110.21 158.951L110.21 147.564L112.197 147.564Z" fill="rgb(229,229,229)" fill-rule="nonzero" />
		<path id="+" d="M151.559 12.1299L151.559 13.999L140.838 13.999L140.838 12.1299L151.559 12.1299ZM147.197 7.56445L147.197 18.9512L145.21 18.9512L145.21 7.56445L147.197 7.56445Z" fill="rgb(229,229,229)" fill-rule="nonzero" />
		<path id="+" d="M151.559 47.1299L151.559 48.999L140.838 48.999L140.838 47.1299L151.559 47.1299ZM147.197 42.5645L147.197 53.9512L145.21 53.9512L145.21 42.5645L147.197 42.5645Z" fill="rgb(229,229,229)" fill-rule="nonzero" />
		<path id="+" d="M151.559 82.1299L151.559 83.999L140.838 83.999L140.838 82.1299L151.559 82.1299ZM147.197 77.5645L147.197 88.9512L145.21 88.9512L145.21 77.5645L147.197 77.5645Z" fill="rgb(229,229,229)" fill-rule="nonzero" />
		<path id="+" d="M151.559 117.13L151.559 118.999L140.838 118.999L140.838 117.13L151.559 117.13ZM147.197 112.564L147.197 123.951L145.21 123.951L145.21 112.564L147.197 112.564Z" fill="rgb(229,229,229)" fill-rule="nonzero" />
		<path id="+" d="M151.559 152.13L151.559 153.999L140.838 153.999L140.838 152.13L151.559 152.13ZM147.197 147.564L147.197 158.951L145.21 158.951L145.21 147.564L147.197 147.564Z" fill="rgb(229,229,229)" fill-rule="nonzero" />
	</g>
</svg>
