<svg viewBox="0 0 385 12" xmlns="http://www.w3.org/2000/svg" xmlns:xlink="http://www.w3.org/1999/xlink" width="385.000000" height="12.000000" fill="none" customFrame="#000000">
	<defs>
		<filter id="pixso_custom_mask_type_alpha">
			<feColorMatrix type="matrix" values="0 0 0 0 1 0 0 0 0 1 0 0 0 0 1 0 0 0 1 0 " />
		</filter>
	</defs>
	<mask id="mask_0" width="385.000000" height="12.000000" x="0.000000" y="0.000000" maskUnits="userSpaceOnUse">
		<g filter="url(#pixso_custom_mask_type_alpha)">
			<rect id="Rectangle 36" width="385.000000" height="12.000000" x="0.000000" y="0.000000" fill="rgb(196,196,196)" />
		</g>
	</mask>
	<g id="Decore" mask="url(#mask_0)">
		<path id="Vector" d="M50.1261 21.7312L50.9214 21.4337L49.0764 21.4337L49.808 21.1362C50.635 21.0198 51.8439 21.1362 52.3529 20.9099C52.3529 20.7611 51.4304 20.8452 51.1441 20.7676C50.8828 20.6834 50.6593 20.5947 50.4761 20.5024C50.9266 20.4393 51.435 20.3953 51.9711 20.3731C52.6996 20.3577 53.3932 20.3018 53.9752 20.2114C55.1841 20.0627 56.3294 19.8751 57.6336 19.694L57.0292 19.4224L58.7469 19.2607C58.9378 19.2607 59.1287 19.1896 59.3196 19.196C60.9102 19.2542 61.451 19.0214 62.0872 18.8015C62.2143 18.75 62.3748 18.7022 62.5643 18.6593C64.5366 18.4458 66.4771 18.5687 68.3222 18.5105C68.676 18.5124 69.0236 18.5301 69.3402 18.5623C70.0198 18.6157 70.7544 18.6336 71.4768 18.6144C72.1993 18.5952 72.8864 18.5395 73.4756 18.4523C74.7799 18.2626 76.303 18.1446 77.8974 18.1095C78.3745 18.1049 78.8416 18.08 79.2688 18.0366C79.696 17.9932 80.0741 17.9321 80.3787 17.8573L81.4921 17.9026C81.8927 17.7624 82.4291 17.6403 83.0689 17.5436C83.7087 17.4469 84.4385 17.3776 85.214 17.3399C86.0411 17.3011 86.8682 17.2365 87.7271 17.1977C89.4951 17.1055 91.1881 16.9617 92.7533 16.7708C95.1073 16.5315 97.3978 16.2793 99.7837 16.0594C101.268 15.9058 102.702 15.733 104.078 15.5421C105.734 15.3283 107.566 15.1772 109.486 15.0958C109.486 15.2769 108.659 15.3416 108.118 15.4127C106.369 15.6326 104.555 15.8137 102.742 16.0142C101.927 16.1078 101.141 16.2114 100.388 16.3246C99.1215 16.498 97.7671 16.6433 96.348 16.7579C94.1264 16.9783 91.9984 17.2357 89.9857 17.5275C89.8312 17.5567 89.6926 17.5893 89.5721 17.6245C89.5527 17.6429 89.5568 17.662 89.5841 17.68C89.6114 17.698 89.6609 17.7143 89.728 17.7272C89.795 17.7402 89.8773 17.7495 89.967 17.7541C90.0567 17.7588 90.1508 17.7587 90.2402 17.7538C91.0992 17.7538 92.0216 17.7538 92.7851 17.6633C92.8149 17.6604 92.8475 17.6589 92.8806 17.6589C92.9136 17.6589 92.9462 17.6604 92.976 17.6633C94.7892 17.6633 96.1572 17.424 97.4932 17.2753C99.7325 17.0693 101.864 16.8179 103.855 16.5251C104.157 16.4825 104.49 16.4498 104.842 16.4281C106.987 16.2372 108.947 15.97 110.631 15.6391C111.331 15.5162 111.967 15.3739 112.731 15.264C113.2 15.1934 113.593 15.1044 113.889 15.0021C114.184 14.8999 114.374 14.7866 114.449 14.669C114.798 14.6754 115.149 14.6754 115.498 14.669C115.706 14.6641 115.898 14.6434 116.033 14.611C116.169 14.5786 116.239 14.5369 116.23 14.4944C116.23 14.3715 115.753 14.378 115.339 14.3844C115.561 14.3264 115.817 14.2743 116.103 14.2292C117.708 13.9718 119.459 13.7547 121.32 13.5825C122.783 13.4855 123.865 13.2397 125.424 13.175C125.614 13.175 125.742 13.1168 125.901 13.0845C126.303 12.9764 126.829 12.8898 127.434 12.8324C128.038 12.7749 128.702 12.7482 129.368 12.7547C130.004 12.386 131.818 12.4442 133.058 12.2955C133.504 12.3731 133.058 12.4119 133.058 12.4507C133.058 12.4895 133.058 12.4507 132.899 12.4507C131.77 12.8121 130.112 13.0925 128.159 13.2527C127.809 13.3032 127.479 13.3594 127.173 13.4208C126.709 13.5121 126.171 13.5865 125.583 13.6407C124.945 13.7099 124.374 13.8019 123.897 13.9123C123.61 13.9526 123.378 14.0068 123.223 14.0702C123.067 14.1335 122.992 14.2037 123.006 14.2745C123.224 14.2994 123.46 14.3168 123.706 14.3262C124.961 14.3224 126.164 14.2232 127.078 14.0481C128.668 13.7442 130.641 13.5372 132.358 13.2656C133.523 13.0886 134.782 12.9389 136.112 12.8193C136.112 12.8193 136.112 12.8905 136.112 12.897C136.28 12.9037 136.453 12.9037 136.621 12.897C136.621 12.897 136.621 12.897 136.621 12.8646C136.535 12.8458 136.425 12.8324 136.303 12.8258L135.889 12.8258C136.144 12.7741 136.367 12.6965 136.653 12.6835C137.253 12.6498 137.813 12.5917 138.299 12.5128C138.786 12.4339 139.189 12.3358 139.484 12.2244C140.024 12.0585 140.728 11.9175 141.552 11.8105C142.175 11.7118 142.77 11.606 143.333 11.4936C143.333 11.4936 143.333 11.416 143.588 11.3384C143.304 11.3281 143.013 11.3281 142.729 11.3384C141.52 11.4354 140.311 11.5388 139.134 11.6552C138.707 11.7107 138.312 11.7758 137.957 11.8493C136.956 12.0189 135.799 12.1464 134.553 12.2244C134.553 12.2244 134.299 12.2244 134.172 12.2244C134.426 12.0174 135.667 12.0109 136.08 11.8363C136.367 11.7975 136.876 11.7393 136.844 11.7135C136.785 11.6812 136.763 11.6468 136.777 11.6125C136.792 11.5783 136.844 11.5452 136.929 11.5155C137.014 11.4858 137.13 11.4604 137.27 11.4409C137.409 11.4215 137.568 11.4085 137.735 11.403C139.101 11.3069 140.357 11.155 141.425 10.9568C141.838 10.8986 142.315 10.8598 142.729 10.808C142.984 10.7804 143.211 10.7431 143.397 10.6981C144.323 10.4301 145.651 10.2304 147.183 10.129C147.916 10.0664 148.585 9.97649 149.155 9.86382C149.568 9.79915 149.791 9.86382 150.109 9.86382L151.413 9.77328L149.855 10.116C150.332 10.323 150.65 10.3683 151.223 10.3036C152.058 10.2101 152.866 10.1064 153.64 9.99317C154.213 9.90909 154.658 9.78621 155.485 9.77328C155.631 9.76967 155.766 9.75596 155.867 9.73448C156.732 9.51748 157.817 9.341 159.048 9.2171C159.589 8.96488 160.734 8.97134 161.784 8.95841C162.038 8.79026 161.434 8.81613 161.052 8.79026C161.879 8.68032 162.706 8.55744 163.565 8.45396C163.818 8.41092 164.115 8.38034 164.436 8.36463C164.756 8.34892 165.089 8.34851 165.41 8.36342C165.571 8.37968 165.757 8.3827 165.929 8.37186C166.101 8.36102 166.245 8.33716 166.333 8.30522C166.746 8.18881 167.478 8.13707 167.796 7.99479C167.915 7.95554 168.099 7.92617 168.315 7.91195C168.53 7.89773 168.764 7.89959 168.973 7.91718C168.776 7.96023 168.605 8.00801 168.464 8.05946C167.955 8.23408 168.242 8.36342 169.069 8.49277C170.15 8.32462 171.264 8.1694 172.25 7.98186C172.792 7.86253 173.487 7.77631 174.257 7.7329C175.027 7.68948 175.841 7.69059 176.608 7.7361C176.887 7.75584 177.193 7.7535 177.464 7.72953C177.735 7.70557 177.952 7.66174 178.071 7.60676C178.136 7.55366 178.136 7.49817 178.071 7.44508L177.308 7.44508C177.308 7.44508 177.308 7.38687 177.308 7.37394L178.326 7.21872C178.867 7.14111 179.439 7.07644 179.948 6.99884C180.684 6.86125 181.55 6.75562 182.493 6.68841C183.367 6.63291 184.217 6.56372 185.038 6.48146C185.833 6.40385 186.342 6.2163 187.074 6.09342C187.627 6.00055 188.25 5.92631 188.919 5.87354C190.075 5.78421 191.103 5.63748 191.909 5.4467C193.086 5.68599 193.595 5.67952 194.454 5.4467L194.868 5.35616L195.027 5.42083L195.345 5.35616C195.949 5.25268 196.554 5.14921 197.19 5.0522C198.097 4.96045 199.105 4.91811 200.117 4.92932C200.307 4.92932 200.594 4.98106 200.785 5.02633C200.976 5.0716 201.421 5.22681 201.739 5.32382C201.516 5.45963 201.262 5.59545 201.103 5.73773C201.091 5.75985 201.105 5.78223 201.143 5.80308C201.181 5.82392 201.243 5.84264 201.324 5.85774C201.404 5.87283 201.501 5.88388 201.606 5.89C201.711 5.89611 201.822 5.89712 201.93 5.89294C202.141 5.88694 202.345 5.87383 202.534 5.85414C203.456 5.73515 204.329 5.60105 205.143 5.45317C205.424 5.36845 205.837 5.30527 206.315 5.27364C206.794 5.24201 207.31 5.24373 207.783 5.27855C208.839 5.06621 210.109 4.90294 211.505 4.79998C212.905 4.54129 214.686 4.40547 215.959 4.09505C215.959 4.15972 216.15 4.24379 216.372 4.27613C216.722 4.32353 217.11 4.35852 217.517 4.37961L220.412 4.12092C220.556 4.18006 220.726 4.23635 220.921 4.28906C221.059 4.33304 221.275 4.36439 221.525 4.37646C221.774 4.38853 222.037 4.38038 222.257 4.35374C222.83 4.29553 223.275 4.17912 224.007 4.20499C223.035 4.46707 221.637 4.65044 220.062 4.72237C218.596 4.81548 217.211 4.95518 215.959 5.13627C215.545 5.19448 215.004 5.27855 214.909 5.36263C214.718 5.58898 213.955 5.66658 213.064 5.75713C212.359 5.81768 211.734 5.9114 211.242 6.03057C210.75 6.14975 210.404 6.29099 210.233 6.44265C210.233 6.56553 210.423 6.64314 211.06 6.62374L213.7 6.5332C214.051 6.44614 214.381 6.35548 214.686 6.26157C215.21 6.12006 215.887 6.005 216.665 5.92536C217.443 5.84572 218.301 5.80364 219.172 5.8024C219.617 5.8024 220.062 5.8024 220.349 5.73126C220.596 5.66118 220.819 5.58771 221.017 5.51137C221.046 5.47496 221.046 5.43784 221.017 5.40143C221.185 5.39619 221.357 5.39619 221.526 5.40143C222.925 5.54371 223.88 5.40143 224.707 5.19448C224.929 5.13627 225.089 5.0716 225.311 5.00693C225.534 4.94225 225.598 4.89052 225.82 4.87112C227.602 4.72884 227.92 4.30847 229.383 4.11445C229.447 4.09065 229.481 4.06397 229.481 4.03684C229.481 4.00972 229.447 3.98303 229.383 3.95923C229.266 3.94622 229.135 3.93939 229.001 3.93939C228.868 3.93939 228.737 3.94622 228.62 3.95923C227.926 4.01017 227.342 4.10847 226.965 4.23733C226.688 4.30764 226.391 4.37458 226.075 4.43781L224.357 4.14032C225.793 3.98486 227.129 3.79368 228.333 3.5712C228.588 3.50653 229.065 3.48713 229.447 3.44186L232.246 3.09263C232.819 3.01502 233.264 2.86627 234.155 2.93741C234.155 2.93741 234.696 2.89214 234.823 2.84687C234.95 2.8016 235.491 2.55585 235.809 2.40063C236.254 2.3683 236.891 2.36183 237.145 2.29716C237.58 2.16548 237.943 2.02451 238.227 1.87678L239.976 1.77978C240.039 1.90664 240.039 2.03448 239.976 2.16134C239.9 2.28589 239.97 2.41235 240.18 2.53037C240.39 2.64839 240.734 2.75463 241.185 2.8404L243.221 3.34485C243.517 3.35588 243.822 3.34814 244.095 3.32268C244.368 3.29723 244.596 3.25529 244.748 3.20257C245.416 3.01502 246.179 2.83394 246.847 2.64639C247.834 2.64639 247.706 2.89214 248.47 2.98268L250.792 2.98268C251.269 3.22197 251.746 3.44832 250.792 3.68761C250.601 3.73288 250.792 3.82342 250.633 3.89456C251.524 3.99804 252.415 3.93983 253.273 3.95923C253.634 4.0099 253.947 4.07344 254.196 4.14678C254.491 4.26868 255.01 4.36211 255.641 4.40688C256.272 4.45165 256.964 4.44418 257.568 4.38607C258.6 4.32499 259.676 4.30092 260.749 4.31493C261.116 4.32067 261.485 4.31037 261.83 4.28471C262.176 4.25905 262.491 4.21864 262.753 4.16619C263.701 4.00443 264.47 3.80391 265.012 3.57767C265.557 3.3734 266.344 3.20002 267.302 3.07322C269.052 3.07322 269.561 3.37718 270.706 3.54533L269.02 3.82342C269.02 3.95277 269.211 4.08858 268.511 4.18559C267.811 4.2826 268.225 4.34727 268.511 4.43134C268.621 4.47851 268.808 4.5165 269.039 4.53889C269.271 4.56129 269.534 4.5667 269.783 4.55422L271.31 4.49602C271.854 4.47925 272.364 4.43235 272.785 4.36047C273.206 4.28859 273.521 4.19451 273.696 4.08858C273.905 3.98192 274.219 3.88508 274.619 3.80402C275.113 3.67073 275.5 3.52227 275.764 3.36425L277.895 3.2349C277.925 3.10988 278.166 2.99075 278.577 2.89766C278.989 2.80457 279.546 2.74322 280.154 2.72399L281.586 2.62698C283.176 2.51704 283.494 2.43297 283.78 2.0514L281.649 1.74744C281.84 1.55989 282.031 1.39174 282.222 1.22359C281.667 1.10234 280.965 1.01309 280.186 0.964904C279.448 0.898939 278.694 0.84066 277.927 0.79029C277.1 0.745019 276.241 0.725618 275.223 0.686814C275.032 0.654478 274.746 0.589805 274.396 0.538067C274.047 0.489039 273.686 0.443709 273.315 0.402255C273.315 0.272911 273.315 0.156501 273.124 0.0336232C273.719 -0.00355648 274.351 -0.0100192 274.962 0.0148193C275.573 0.0396578 276.144 0.0950161 276.623 0.175902C276.704 0.190793 276.8 0.201964 276.904 0.208658C277.009 0.215353 277.119 0.217414 277.227 0.214705C278.277 0.1565 278.85 0.266444 279.454 0.41519C279.843 0.479831 280.321 0.518258 280.822 0.525133C281.776 0.525133 282.731 0.563936 283.653 0.583337C283.938 0.593106 284.228 0.593106 284.512 0.583337C285.448 0.547754 286.408 0.547754 287.343 0.583337C287.643 0.583563 287.938 0.598357 288.203 0.626485C288.469 0.654612 288.698 0.695255 288.87 0.745018C288.698 0.851211 288.633 0.963412 288.679 1.07485C288.679 1.15245 289.379 1.21066 289.729 1.27533C290.079 1.34 289.475 1.37234 289.284 1.41114C288.489 1.54696 288.361 1.61163 288.966 1.77978C289.165 1.8313 289.311 1.89061 289.393 1.95402C289.475 2.01743 289.492 2.0836 289.443 2.14841C289.443 2.3877 289.188 2.62052 289.061 2.87274C289.507 2.96328 290.206 3.02795 290.365 3.1961C290.418 3.2309 290.508 3.26287 290.629 3.28972C290.75 3.31656 290.899 3.3376 291.065 3.35131C291.494 3.37083 291.895 3.41015 292.237 3.46622C292.579 3.5223 292.853 3.59362 293.038 3.67468C293.102 3.70984 293.23 3.73871 293.395 3.75551C293.561 3.7723 293.751 3.77577 293.928 3.76522C294.14 3.75307 294.321 3.72481 294.434 3.68629C294.546 3.64777 294.582 3.60194 294.533 3.55827C294.492 3.46885 294.418 3.3802 294.31 3.29311C294.31 3.22197 294.31 3.15083 294.119 3.06029C294.747 3.01355 295.426 3.00271 296.082 3.02893C296.739 3.05516 297.347 3.11745 297.841 3.20904C298.382 3.29958 298.891 3.40305 299.495 3.513C299.495 3.73288 299.495 3.73288 300.768 3.93983L306.621 3.29311L307.925 3.36425C309.134 3.41599 309.389 3.36425 310.025 3.1573L310.438 2.98915C311.488 2.98915 312.697 2.98915 313.174 2.63992C313.46 2.7822 313.62 2.821 313.588 2.85334C313.425 3.14689 313.028 3.43307 312.411 3.70055C312.252 3.76522 312.156 3.84282 311.965 3.9075C311.393 4.20033 311.393 4.52654 311.965 4.81938C312.24 4.94594 312.604 5.06361 313.047 5.16861C312.628 5.46191 312.018 5.74249 311.234 6.00288C310.562 6.21351 310.038 6.44203 309.675 6.68194C309.359 6.91669 308.819 7.13646 308.084 7.32866C307.708 7.41948 307.456 7.52874 307.353 7.64556C307.44 7.90936 307.685 8.16999 308.084 8.42163C308.177 8.50237 308.36 8.57767 308.619 8.64163C308.878 8.70558 309.207 8.75646 309.579 8.79026C309.579 8.79026 309.77 8.82906 309.866 8.85493C310.09 9.15743 309.992 9.46617 309.579 9.76035C309.525 9.83483 309.372 9.9049 309.137 9.96302C308.902 10.0211 308.593 10.0651 308.243 10.0902C307.512 10.1548 306.844 10.2454 306.144 10.323C305.386 10.3996 304.744 10.5163 304.285 10.6608C303.826 10.8054 303.567 10.9724 303.535 11.1443C303.551 11.1895 303.551 11.2349 303.535 11.2801C303.525 11.3038 303.525 11.3276 303.535 11.3513L305.38 11.6358L303.694 12.095C303.694 12.3149 304.617 12.3149 305.126 12.4054L304.903 12.5283C304.585 12.6253 304.076 12.5995 303.631 12.6059L303.185 12.6059L303.185 12.7094C302.994 12.8776 301.977 12.8646 301.658 13.0134C301.34 13.1621 301.658 13.2333 302.263 13.2591C302.686 13.2821 303.129 13.2854 303.558 13.2686C303.988 13.2518 304.394 13.2154 304.744 13.1621C304.949 13.1218 305.111 13.0734 305.221 13.0198C305.887 12.7635 306.642 12.5171 307.48 12.2826C308.115 12.0886 308.951 11.9253 309.929 11.804C310.21 11.7561 310.565 11.7298 310.931 11.7298C311.298 11.7298 311.653 11.7561 311.933 11.804L312.442 11.7458C312.442 11.7458 312.761 11.7911 312.729 11.8105C312.666 12.0882 313.046 12.3626 313.81 12.593L313.301 12.6965C312.538 12.7741 313.111 12.897 313.047 13.0069C312.506 13.0651 311.774 13.0845 311.584 13.2397L311.202 13.285L311.361 13.285L311.52 13.2203L312.315 13.2979C311.997 13.3755 311.774 13.4467 311.488 13.5049C311.333 13.5421 311.216 13.5854 311.145 13.6321C311.074 13.6788 311.05 13.7279 311.075 13.7765C311.114 13.8511 311.058 13.9266 310.914 13.9956C310.769 14.0647 310.539 14.1251 310.247 14.171C309.898 14.2227 309.738 14.3327 309.548 14.3909L310.693 14.7531C310.693 14.7531 310.216 14.7531 310.502 14.8048L310.502 14.7401L311.106 14.7854C311.552 14.8371 311.838 14.8242 312.029 14.7142C312.22 14.6043 312.22 14.7142 312.315 14.669C312.315 14.7531 312.093 14.8436 311.902 14.9212C311.672 14.9935 311.406 15.0607 311.106 15.1217C311.838 15.3868 311.87 15.3933 311.106 15.6003C310.343 15.8072 310.693 15.9042 310.025 16.0206C309.357 16.137 310.248 16.2599 310.725 16.2405C311.077 16.2223 311.443 16.2198 311.8 16.2332C312.157 16.2466 312.496 16.2756 312.792 16.3181L312.792 16.6027C312.582 16.6093 312.367 16.6093 312.156 16.6027C311.424 16.5509 310.757 16.4992 310.216 16.6674L310.597 16.829L308.498 17.0037C308.628 17.1471 309.027 17.2746 309.611 17.3593C309.58 17.4562 309.58 17.5535 309.611 17.6504C309.611 17.7215 309.389 17.7086 309.261 17.7344C308.8 17.8123 308.44 17.9119 308.212 18.0247C307.985 18.1375 307.897 18.2599 307.957 18.3812C307.957 18.4911 308.784 18.6011 309.23 18.5299C310.361 18.3902 311.614 18.2958 312.92 18.2518C313.683 18.1613 313.651 17.8767 314.987 17.8832C315.076 18.004 314.969 18.1274 314.682 18.2348C314.395 18.3421 313.944 18.4276 313.397 18.4782C313.842 18.711 315.56 18.5429 315.783 18.8209C315.354 18.8604 314.881 18.8763 314.413 18.8672C313.944 18.8582 313.495 18.8244 313.111 18.7692C313.026 18.7542 312.924 18.7437 312.814 18.7388C312.704 18.7339 312.59 18.7347 312.482 18.7412C312.375 18.7476 312.276 18.7595 312.197 18.7757C312.118 18.7919 312.06 18.8119 312.029 18.8339C312.315 18.905 312.633 18.9891 312.983 19.0602C313.333 19.1314 313.429 19.1702 313.651 19.1637C315.337 19.1637 316.292 19.4612 317.787 19.5323C318.169 19.5323 318.296 19.6876 317.978 19.7134C317.675 19.7371 317.41 19.7775 317.213 19.83C317.017 19.8826 316.896 19.9452 316.864 20.0109C316.671 20.11 316.414 20.2035 316.101 20.289C317.708 20.5047 319.557 20.6337 321.477 20.6641C321.842 20.6722 322.21 20.6563 322.527 20.6188C323.517 20.4778 324.585 20.3606 325.708 20.2696C326.103 20.232 326.46 20.1793 326.758 20.1144C327.744 19.9204 328.603 19.9139 329.493 20.1144L330.957 20.4248C330.957 20.5089 330.798 20.6253 330.702 20.7676L331.784 20.8905L338.719 19.2607L340.468 19.6293L342.536 19.2995C342.704 19.2933 342.877 19.2933 343.045 19.2995C343.554 19.4095 343.968 19.5259 344.508 19.6229C345.049 19.7199 345.876 19.6229 346.544 19.7328C347.212 19.8428 347.785 19.7652 348.548 19.7781C348.691 19.9167 348.691 20.0598 348.548 20.1985C348.548 20.3343 348.23 20.4636 348.23 20.593C348.3 20.7138 348.22 20.8362 347.997 20.9491C347.775 21.0621 347.418 21.1619 346.958 21.2397C345.786 21.6854 344.308 22.0948 342.568 22.4555C342.414 22.4856 342.292 22.5218 342.21 22.5619C342.128 22.6019 342.088 22.645 342.091 22.6883C342.154 22.8062 342.087 22.9254 341.894 23.0373C341.701 23.1492 341.388 23.251 340.977 23.3351C340.867 23.3559 340.79 23.3829 340.755 23.4127C340.602 23.4505 340.499 23.4957 340.458 23.5439C340.416 23.5921 340.436 23.6417 340.516 23.6878C340.596 23.734 340.733 23.7752 340.914 23.8074C341.095 23.8396 341.314 23.8618 341.55 23.8719C341.895 23.8929 342.245 23.9102 342.6 23.9236C342.6 23.9624 342.282 24.0141 342.345 24.04C342.525 24.1258 342.605 24.219 342.577 24.3122C342.55 24.4054 342.416 24.496 342.186 24.5768L344.349 25.1718C345.46 25.1384 346.592 25.189 347.53 25.314C347.552 25.3534 347.522 25.3933 347.444 25.4296C347.366 25.4659 347.242 25.4974 347.085 25.521C346.672 25.5986 346.29 25.6891 345.844 25.7732C345.573 25.8272 345.358 25.8916 345.211 25.9626C345.063 26.0337 344.987 26.11 344.986 26.1871L346.163 26.3553C345.876 26.4781 345.654 26.5493 345.463 26.6269C345.635 26.708 345.897 26.7799 346.228 26.8371C346.559 26.8943 346.95 26.9352 347.371 26.9567C347.482 26.9578 347.592 26.9543 347.696 26.9465C347.8 26.9388 347.895 26.9268 347.976 26.9115C348.707 26.6916 349.725 26.7498 350.712 26.8015C351.698 26.8532 352.239 26.8921 352.97 26.9373L354.243 26.7756C354.596 26.796 354.921 26.833 355.192 26.8835C355.463 26.9341 355.671 26.9968 355.801 27.0667C355.801 27.2089 355.165 27.2219 354.815 27.2866C354.011 27.49 352.888 27.6315 351.634 27.6875C351.316 27.6875 351.03 27.7651 350.743 27.8104C350.13 27.9158 349.546 28.028 348.994 28.1467C348.636 28.2349 348.306 28.3278 348.008 28.4248C348.008 28.6059 349.439 28.5412 348.707 28.7352C348.994 28.7352 349.121 28.774 349.248 28.7352C350.183 28.7192 351.077 28.6497 351.825 28.5347C353.257 28.3052 354.936 28.1478 356.724 28.0756C358.651 27.9901 360.45 27.8128 361.973 27.5582C362.559 27.4723 363.233 27.4148 363.945 27.39C364.793 27.3754 365.617 27.3247 366.363 27.2413C366.606 27.2073 366.886 27.1855 367.179 27.1776C367.472 27.1697 367.77 27.176 368.049 27.196C368.049 27.2413 367.826 27.306 367.89 27.3189C368.812 27.5258 369.289 27.8104 370.625 27.9656C371.484 27.9656 372.47 27.9656 372.916 27.7393C373.361 27.5129 373.107 27.4094 371.866 27.1701C372.089 27.1323 372.371 27.1115 372.661 27.1115C372.952 27.1115 373.234 27.1323 373.457 27.1701L374.506 27.3318L375.461 27.4935C375.461 27.6423 375.461 27.7587 375.461 27.8815C375.43 28.0164 375.608 28.1498 375.97 28.2631C376.183 28.3226 376.375 28.3853 376.542 28.4507C377.221 28.7108 377.529 29.0041 377.433 29.2979C377.185 29.7359 376.749 30.1687 376.129 30.5913C375.461 31.0117 375.206 31.4579 374.697 31.8848C374.428 32.0844 374.077 32.2791 373.648 32.4668C372.852 32.8613 371.962 33.2558 371.166 33.6568C370.371 34.0577 369.417 34.4005 368.494 34.7691C367.086 35.2514 365.535 35.7157 363.85 36.1596C362.832 36.483 361.782 36.8063 360.859 37.1426C359.764 37.5296 358.428 37.8861 356.883 38.2032C355.533 38.5116 354.359 38.85 353.384 39.2121C353.282 39.2508 353.207 39.2922 353.161 39.335C353.075 39.5745 352.606 39.8016 351.825 39.9817C351.906 40.0366 352.002 40.0906 352.111 40.1434C352.263 40.2033 352.323 40.271 352.284 40.3379C352.244 40.4048 352.106 40.4677 351.889 40.5185C351.265 40.6639 350.77 40.8302 350.425 41.01C350.291 41.0619 350.222 41.1196 350.222 41.1782C350.222 41.2367 350.291 41.2944 350.425 41.3463C350.549 41.4018 350.587 41.4635 350.536 41.5234C350.485 41.5834 350.347 41.6388 350.139 41.6826C349.621 41.8257 349.058 41.9618 348.453 42.0901C347.167 42.3659 345.62 42.5859 343.904 42.7368C343.713 42.7368 343.554 42.8015 343.331 42.8015C342.099 42.8719 340.994 43.0134 340.15 43.2089C339.132 43.3835 338.051 43.5322 336.969 43.7004C335.393 43.9165 333.969 44.1754 332.738 44.47C331.211 44.5735 330.479 44.8774 329.239 45.0585C328.102 45.2415 327.038 45.4426 326.058 45.66C324.467 45.9898 322.877 46.3067 321.318 46.6495C319.829 46.9194 318.485 47.2208 317.31 47.5484C316.864 47.6842 315.942 47.7036 315.687 47.8912C315.433 48.0787 314.765 48.1563 314.256 48.2792L312.633 48.6349C312.358 48.7037 312.049 48.7665 311.711 48.8224C310.152 49.0553 309.166 49.398 307.734 49.6438L307.575 49.6438C305.142 50.2915 302.272 50.8663 299.05 51.3511C297.205 51.7068 295.137 51.9979 293.165 52.3471C292.751 52.5411 291.542 52.5476 291.002 52.7481C290.461 52.9485 289.443 53.0132 288.679 53.1426C287.916 53.2719 287.184 53.4271 286.357 53.5435C285.64 53.6466 285.06 53.7844 284.671 53.9445C283.752 54.2486 282.578 54.5178 281.204 54.74C279.391 55.0439 277.705 55.3867 275.828 55.6324C275.915 55.7459 275.851 55.862 275.644 55.9688C275.438 56.0757 275.095 56.1694 274.651 56.2404C272.678 56.5702 270.929 56.9453 268.925 57.2687L268.384 57.3463L262.371 58.2775C260.749 58.5233 259.19 58.7691 257.536 59.0213C256.868 59.0213 256.932 59.1765 256.486 59.2088C256.327 59.1506 256.168 59.1377 255.977 59.2088L255.977 59.3058L249.138 60.4117C246.481 60.8855 243.652 61.3178 240.676 61.7052C239.979 61.8143 239.339 61.9379 238.767 62.0738C238.223 62.1714 237.649 62.2621 237.05 62.3454C236.229 62.4383 235.433 62.5397 234.664 62.6494C232.66 62.9728 230.528 63.2573 228.301 63.5483C226.075 63.8394 224.421 64.1239 222.448 64.402C221.112 64.5896 219.776 64.7642 218.376 64.9259C217.708 65.0035 216.849 65.0293 216.15 65.094C215.45 65.1587 215.227 65.191 215.163 65.2557C214.941 65.4432 214.145 65.4562 213.541 65.5273C212.364 65.6696 212.173 65.6437 211.664 65.3139L213.032 64.9905C213.362 64.902 213.799 64.8323 214.301 64.7882C214.802 64.744 215.351 64.7268 215.895 64.7383C216.111 64.7458 216.331 64.7444 216.544 64.7345C216.757 64.7245 216.958 64.706 217.136 64.6801C218.567 64.4538 219.967 64.208 221.335 63.9752L221.526 63.9234L221.367 63.5872C221.166 63.5805 220.962 63.5805 220.762 63.5872L213.7 64.3632C212.078 64.5378 210.36 64.6542 208.769 64.8289C207.179 65.0035 206.32 65.094 205.079 65.2169C204.552 65.2613 204.01 65.298 203.457 65.3268C203.471 65.2902 203.471 65.2535 203.457 65.2169C203.457 65.1587 203.457 65.0811 203.202 65.0552C202.915 65.0084 202.552 64.9853 202.184 64.9905C201.846 65.0077 201.523 65.0361 201.23 65.0746C199.806 65.248 198.105 65.3014 196.49 65.2234L196.077 65.4885C193.818 65.6955 191.528 65.9089 189.173 66.1352C188.698 66.1731 188.187 66.1886 187.678 66.1805C187.138 66.1805 186.597 66.0964 186.024 66.09C185.47 66.1057 184.926 66.1339 184.402 66.174C184.514 66.105 184.675 66.0397 184.879 65.98C185.089 65.9393 185.231 65.886 185.282 65.8279C185.334 65.7697 185.293 65.7098 185.165 65.6567C184.943 65.5661 184.815 65.4691 185.165 65.4044C185.482 65.3313 185.689 65.2413 185.762 65.1451C185.835 65.0488 185.772 64.9503 185.579 64.8612C185.486 64.8062 185.412 64.75 185.356 64.693L185.197 64.693C184.593 64.5378 183.575 64.596 182.779 64.512C182.421 64.5058 182.063 64.524 181.761 64.5637C180.966 64.6348 180.203 64.7254 179.376 64.7901C178.981 64.8218 178.559 64.8372 178.135 64.8353C177.531 64.8353 177.467 64.8353 176.99 64.5896C177.5 64.5221 177.88 64.4209 178.066 64.3031C178.251 64.1852 178.231 64.058 178.008 63.9428C177.435 63.7036 176.831 63.4513 174.827 63.5095C175.439 63.4108 176.023 63.305 176.576 63.1926C176.738 63.1623 176.851 63.1226 176.899 63.0789C176.947 63.0352 176.929 62.9895 176.846 62.948C176.762 62.9065 176.619 62.8712 176.434 62.8467C176.25 62.8222 176.033 62.8098 175.813 62.8111C174.726 62.7847 173.624 62.8206 172.632 62.9146C171.805 63.0116 171.073 63.128 170.118 63.2638L168.91 63.2638C168.91 63.225 168.719 63.1991 168.751 63.1732C168.942 62.9469 169.164 62.7205 169.387 62.4748C168.812 62.4413 168.296 62.3757 167.896 62.2853C167.497 62.195 167.231 62.0836 167.128 61.9639C167.081 61.9301 167.07 61.8947 167.098 61.86C167.125 61.8254 167.19 61.7924 167.287 61.7634C167.571 61.6968 167.776 61.6179 167.887 61.5327C167.997 61.4475 168.01 61.3582 167.924 61.2719L166.874 61.0585C164.113 61.1936 161.435 61.391 158.889 61.647L156.599 61.8927C156.281 61.841 156.344 61.7893 156.599 61.7505C156.853 61.7116 157.585 61.634 158.094 61.5758C158.536 61.5317 158.916 61.465 159.194 61.3823C159.473 61.2995 159.642 61.2036 159.684 61.1037L158.73 60.8256C158.73 60.748 158.73 60.6381 159.144 60.5864C159.419 60.5379 159.607 60.4721 159.676 60.3993C159.746 60.3266 159.693 60.2512 159.525 60.1854C159.475 60.1276 159.475 60.0685 159.525 60.0108C160.13 59.9202 160.734 59.8361 161.275 59.7391C161.528 59.6964 161.733 59.6431 161.876 59.5829C162.018 59.5226 162.096 59.4568 162.102 59.3899C162.091 59.3271 162.008 59.2657 161.858 59.2106C161.709 59.1556 161.498 59.1085 161.243 59.073C160.338 59.1133 159.549 59.225 159.048 59.3834C158.887 59.4745 158.595 59.5536 158.209 59.6102C157.822 59.6667 157.361 59.6982 156.885 59.7003C156.34 59.7023 155.816 59.7438 155.408 59.8173C155 59.8908 154.734 59.9915 154.658 60.1013C154.117 60.1401 153.64 60.1789 153.163 60.2048C152.599 60.2321 152.082 60.2902 151.668 60.3729C150.996 60.4856 150.259 60.5812 149.473 60.6575C147.214 60.8903 144.956 61.1296 142.793 61.4012C142.22 61.4724 141.743 61.5694 141.17 61.6276C140.598 61.6858 140.184 61.8087 139.421 61.7893C139.277 61.7898 139.137 61.797 139.01 61.8105C138.883 61.824 138.773 61.8433 138.689 61.8669C137.505 62.1376 136.066 62.3575 134.458 62.5136C132.295 62.8046 130.036 63.0762 127.873 63.3737C127.245 63.4734 126.66 63.5838 126.123 63.7036C125.712 63.7884 125.277 63.8683 124.819 63.9428C124.469 64.0011 124.119 64.0269 124.246 64.1498C124.374 64.2727 123.801 64.2662 123.483 64.2856C122.4 64.3719 121.283 64.439 120.143 64.4861C119.014 64.5216 117.932 64.6029 116.962 64.7254C116.262 64.8159 115.562 64.9517 114.576 64.9C114.576 64.8289 114.576 64.7577 114.735 64.6607C113.908 64.5745 112.992 64.5295 112.063 64.5295C111.133 64.5295 110.217 64.5745 109.391 64.6607L108.086 64.4602C107.789 64.4573 107.492 64.4666 107.213 64.4878C106.934 64.5089 106.679 64.5413 106.464 64.5831C106.296 64.6127 106.082 64.629 105.86 64.629C105.637 64.629 105.423 64.6127 105.255 64.5831C105.01 64.55 104.722 64.5324 104.428 64.5324C104.134 64.5324 103.846 64.55 103.601 64.5831C102.812 64.6538 101.945 64.6805 101.088 64.6607C100.843 64.6123 100.674 64.5503 100.6 64.4825C100.527 64.4147 100.553 64.344 100.674 64.2791C100.867 64.1678 100.947 64.0496 100.909 63.9317C100.87 63.8139 100.715 63.6989 100.452 63.5936C100.31 63.5262 100.237 63.4536 100.237 63.3802C100.237 63.3068 100.31 63.2342 100.452 63.1668C100.961 62.8758 100.738 62.7852 99.561 62.5912C99.369 62.5582 99.1454 62.5337 98.9045 62.5193C98.6635 62.5048 98.4105 62.5007 98.1612 62.5071C97.581 62.531 97.0156 62.5679 96.4753 62.6171C96.1571 62.6171 95.8708 62.6947 95.5209 62.727C93.7712 62.8887 93.4531 62.7917 92.7533 62.5847L92.2443 62.436C91.4111 62.3756 90.5224 62.3536 89.6422 62.3715C88.7621 62.3894 87.9125 62.4468 87.1545 62.5395C86.8557 62.581 86.4981 62.6014 86.1366 62.5977C84.9652 62.5955 83.805 62.644 82.7327 62.7399C82.0662 62.8029 81.3244 62.8254 80.5965 62.8048C79.8685 62.7841 79.1853 62.7212 78.629 62.6235C78.1291 62.5354 77.5064 62.4811 76.8476 62.4683C76.0841 62.4683 75.9569 62.3584 76.3069 62.2096C76.6568 62.0609 77.2612 61.8475 77.802 61.6664C77.9906 61.6042 78.0904 61.5325 78.0904 61.4594C78.0904 61.3863 77.9906 61.3147 77.802 61.2525C77.6353 61.1237 77.5497 60.9911 77.5475 60.858C77.5538 60.8016 77.5007 60.7456 77.3915 60.6937C77.2824 60.6419 77.1199 60.5954 76.9149 60.5574C76.7099 60.5194 76.4672 60.4907 76.2032 60.4734C75.9391 60.4561 75.6599 60.4505 75.3843 60.457C74.2073 60.457 73.0621 60.457 71.885 60.5023C71.3887 60.5153 70.8862 60.5153 70.3899 60.5023C69.3568 60.4424 68.2755 60.4248 67.2088 60.4505C66.7042 60.466 66.1899 60.4405 65.7773 60.3794C64.5024 60.2383 63.3075 60.0691 62.2144 59.875C61.9393 59.8056 61.5967 59.7485 61.208 59.7074C60.8194 59.6662 60.393 59.6418 59.9558 59.6357C59.6059 59.6357 59.2878 59.571 59.0015 59.5387C58.7377 59.4067 58.6431 59.2633 58.7266 59.1219C58.81 58.9805 59.0688 58.8458 59.4786 58.7303C59.8604 58.6074 60.2103 58.478 60.5284 58.3487C60.9278 58.2238 61.4217 58.1125 61.9918 58.0189C62.6564 57.8875 63.1109 57.7185 63.296 57.5338C61.2919 57.5338 59.3196 57.4045 57.729 57.7278L56.3611 57.6632C56.3611 57.5597 56.3611 57.4691 56.3611 57.3851C56.5836 57.2002 56.5836 57.0072 56.3611 56.8224C56.2129 56.7388 56.1762 56.6487 56.2544 56.5613C56.3326 56.4738 56.523 56.3921 56.8065 56.3244C58.4289 55.8135 60.3694 55.3479 61.8645 54.8176C62.3524 54.6884 62.9438 54.5769 63.6141 54.4877C64.2503 54.3778 64.1549 54.2485 63.3278 54.1903C62.8668 54.1639 62.3997 54.1424 61.9281 54.1256C60.0194 54.3843 59.4468 54.8887 57.2201 55.0892L55.9475 54.7141C55.6714 54.7449 55.4057 54.7795 55.1522 54.8176L51.6212 55.5484C51.3235 55.6023 51.1061 55.672 50.9936 55.7498C50.8811 55.8275 50.8781 55.9101 50.985 55.9881C51.0642 56.091 51.0642 56.1957 50.985 56.2986C50.9363 56.3696 51.0278 56.4417 51.2395 56.4991C51.7167 56.6284 51.2395 56.7254 50.9532 56.816C50.8763 56.8318 50.7846 56.8444 50.6836 56.8529C50.5826 56.8615 50.4742 56.866 50.3647 56.866C50.2552 56.866 50.1468 56.8615 50.0458 56.8529C49.9448 56.8444 49.8531 56.8318 49.7762 56.816C49.14 56.7189 48.5673 56.6025 47.9311 56.4861C48.2174 56.2468 47.613 56.0075 48.122 55.7553C48.1713 55.7124 48.177 55.6679 48.1388 55.6245C48.1005 55.5812 48.0189 55.5398 47.8993 55.5031C47.5905 55.4082 47.4103 55.2985 47.3768 55.1849C47.3433 55.0714 47.4576 54.9581 47.7084 54.8564L47.7084 54.7852C46.8495 54.6688 46.9449 54.4425 46.5314 54.2485L45.7361 54.1967C43.7638 54.0803 43.7638 54.0868 42.2368 54.3196C41.8551 54.2226 42.2369 54.145 42.5232 54.0868L44.9091 53.5759C46.4678 53.2396 48.0902 52.9291 49.8716 52.6316C51.6531 52.3342 53.5935 51.9138 55.4068 51.5516C55.4971 51.5307 55.5616 51.5057 55.5948 51.4787C55.628 51.4517 55.629 51.4235 55.5976 51.3964C55.5073 51.3752 55.3946 51.3583 55.268 51.3472C55.1413 51.336 55.0039 51.3307 54.8659 51.3317C54.2297 51.3317 53.5935 51.3641 52.9255 51.3835L51.6848 51.4287L51.2395 51.3188C50.9532 51.2541 50.7305 51.1571 50.3805 51.1313C50.095 51.1155 49.7939 51.1155 49.5086 51.1315C49.2232 51.1474 48.9641 51.1786 48.7582 51.2218C48.1856 51.3382 47.6766 51.4611 47.1358 51.584C46.595 51.7068 46.3087 51.7974 45.8315 51.8879C44.8452 52.039 43.9001 52.2009 43.0004 52.373C42.2743 52.5796 41.6154 52.7956 41.0281 53.0197C40.6464 53.1296 40.2964 53.246 39.5647 53.2784C39.2026 53.2646 38.8762 53.2253 38.6433 53.1673C38.4104 53.1093 38.286 53.0364 38.2923 52.9615C38.3019 52.9021 38.3858 52.8442 38.5361 52.7933C38.6864 52.7424 38.8981 52.7001 39.1511 52.6705C39.8458 52.5605 40.4757 52.4347 41.0281 52.2953C41.7849 52.0778 42.7473 51.8931 43.8592 51.7521C44.241 51.7133 44.4637 51.6228 44.7818 51.5581C45.0999 51.4934 45.3544 51.4093 45.7361 51.3899C46.9131 51.3123 47.3903 51.1054 48.0265 50.9243C48.2374 50.8542 48.3489 50.7736 48.3489 50.6915C48.3489 50.6093 48.2374 50.5288 48.0265 50.4587C47.6174 50.3175 47.1378 50.1853 46.5951 50.0642C46.318 50.0061 45.9784 49.9618 45.6031 49.9349C45.2278 49.908 44.8269 49.8991 44.4318 49.9089C44.1502 49.8269 43.9737 49.732 43.9182 49.6326C43.8626 49.5332 43.9299 49.4326 44.1138 49.3398C44.591 49.1199 45.0045 48.9065 46.2769 48.8095C46.8716 48.7569 47.4196 48.6848 47.8993 48.5961C48.9713 48.4152 50.2522 48.2928 51.6212 48.2404C51.9753 48.2265 52.318 48.2025 52.6392 48.1693C54.9296 47.93 57.0928 47.6648 59.2559 47.3867C60.4011 47.238 61.5464 47.0698 62.7552 46.9405C65.5864 46.6301 68.0995 46.2226 70.8035 45.8669C72.2195 45.6804 73.4498 45.4412 74.43 45.162C74.6115 45.0894 74.7605 45.0137 74.8753 44.9356C74.1042 44.8841 73.281 44.8737 72.4845 44.9054C71.688 44.9371 70.9449 45.0099 70.3263 45.1167C70.0031 45.2082 69.5612 45.2796 69.0501 45.323C68.5389 45.3664 67.9786 45.38 67.4315 45.3625L68.863 45.1038C69.8174 44.9421 70.8035 44.7934 71.726 44.6252C73.1893 44.3536 74.5254 44.0626 76.0523 43.8039C77.2829 43.5908 78.3545 43.3424 79.2335 43.0666C79.8679 42.8664 80.6153 42.6819 81.4603 42.5169C82.0647 42.407 82.0647 42.4069 82.351 42.1418C81.9693 42.0513 81.5557 42.0901 81.174 42.1418C78.8497 42.3826 76.6718 42.6778 74.6845 43.0213C73.6699 43.1716 72.797 43.3578 72.1077 43.5711C71.9487 43.6422 71.4715 43.6875 71.0898 43.7263C69.9052 43.8716 68.7874 44.0382 67.7496 44.2242C66.3199 44.4914 64.687 44.7098 62.9142 44.871C62.5325 44.8128 62.9142 44.7675 62.9142 44.7287C64.2185 44.47 65.491 44.2048 66.827 43.9526C67.1898 43.8789 67.5837 43.8118 68.0041 43.7521C69.5911 43.5634 70.848 43.2785 71.5987 42.9373C71.5987 42.8467 72.1714 42.7756 72.394 42.685C72.4931 42.6201 72.5466 42.5526 72.5531 42.4846C72.1077 42.3811 71.6942 42.4393 71.376 42.4846C70.4621 42.6338 69.5913 42.7936 68.7676 42.9631C68.0025 43.1218 67.1357 43.2589 66.1908 43.3706C65.4909 43.4482 64.9183 43.5646 64.2185 43.6551C63.8318 43.6905 63.4261 43.7165 63.0096 43.7327C63.3945 43.5613 63.9592 43.409 64.6639 43.2865C65.1729 43.1442 65.8409 43.0278 65.8409 42.8467C65.5228 42.7626 65.2365 42.8015 65.0138 42.8467C64.5366 42.9144 64.0799 42.9878 63.6459 43.0666C62.7263 43.2348 61.7118 43.3803 60.6238 43.4999C60.0535 43.568 59.5203 43.6482 59.0332 43.7392C57.9198 43.9268 56.8701 44.1402 55.8521 44.3148C53.7525 44.6446 51.8758 45.0197 49.8716 45.3625C49.4263 45.4401 49.0445 45.5436 48.4082 45.55C47.772 45.5565 47.7402 45.55 47.6448 45.5112C47.4362 45.4535 47.3451 45.3817 47.3904 45.3107C47.4797 45.2377 47.6938 45.1735 47.9947 45.1297C49.7645 44.7809 51.4222 44.4093 52.9573 44.0173C53.6528 43.8834 54.2428 43.7285 54.7069 43.5581C55.0802 43.4331 55.541 43.3198 56.0748 43.2218C56.8415 43.0605 57.6485 42.9072 58.4925 42.7626C58.8844 42.6938 59.2044 42.6097 59.4339 42.5153C59.6633 42.4208 59.7975 42.3181 59.8285 42.2129L58.6198 42.0513C58.4475 42.0603 58.2776 42.0711 58.1108 42.0836L49.5217 43.5517L48.6628 43.681C47.7085 43.7974 47.454 43.7845 46.3724 43.5517C48.374 43.1745 49.8547 42.6973 50.6669 42.1677C50.4029 42.1609 50.1357 42.1609 49.8716 42.1677C48.1903 42.3101 46.6327 42.5066 45.259 42.7497C44.4319 42.8726 43.573 42.9825 42.7141 43.0989C42.8731 42.8855 43.8593 42.8015 44.4637 42.6721C45.9248 42.3961 47.1788 42.0779 48.1856 41.7279C48.5283 41.5985 48.9805 41.4825 49.5217 41.3851C50.0695 41.2999 50.5066 41.1888 50.7949 41.0615C51.0832 40.9341 51.214 40.7943 51.1758 40.6543C51.1647 40.5242 51.218 40.3942 51.3349 40.2663C50.9584 40.1623 50.408 40.0898 49.7872 40.0624C49.1663 40.035 48.5177 40.0546 47.9629 40.1175C46.7643 40.2238 45.5023 40.2978 44.2092 40.3374C43.5647 40.3564 42.9468 40.4026 42.396 40.4732C41.9106 40.5364 41.3369 40.5655 40.7626 40.5561C40.1882 40.5468 39.6447 40.4995 39.2148 40.4215C38.6422 40.331 38.1014 40.234 37.5606 40.137C37.0198 40.0399 36.3836 39.9106 35.7474 39.7877C35.2606 39.8238 34.7919 39.8693 34.3477 39.9235C34.0092 39.9797 33.5988 40.0151 33.1648 40.0254C32.7307 40.0357 32.2912 40.0205 31.8981 39.9817C32.0572 39.8653 32.2481 39.7554 32.439 39.6196C32.0371 39.5337 31.7255 39.432 31.5231 39.3208C31.3208 39.2096 31.2319 39.0912 31.262 38.9728C31.262 38.8694 30.8166 38.7594 30.6257 38.6495C30.4079 38.5623 30.3248 38.4638 30.3873 38.3669C30.4497 38.2699 30.6548 38.1791 30.9757 38.1062C31.3658 38.0007 31.6669 37.8827 31.8664 37.757C31.9357 37.7219 31.9606 37.6838 31.9388 37.6462C31.917 37.6086 31.8492 37.5728 31.7417 37.5419C31.6341 37.511 31.4901 37.4861 31.3229 37.4695C31.1558 37.4528 30.9708 37.4449 30.7848 37.4466C30.2179 37.4569 29.6666 37.4899 29.1624 37.5436C28.2929 37.6341 27.4658 37.7311 26.6811 37.8346C25.8117 37.9458 24.8129 38.0083 23.7863 38.0157C22.8638 38.0157 22.0367 38.0157 21.4959 37.8411C20.9551 37.6665 20.287 37.7699 19.6826 37.6729C19.8937 37.4775 20.3546 37.2968 21.0187 37.1491C21.4608 37.0671 21.8137 36.9672 22.0548 36.8558C22.2958 36.7444 22.4197 36.624 22.4184 36.5024L20.6052 36.2501C19.2373 36.2049 18.6329 36.4765 17.2332 36.58L18.5374 36.2049C18.5565 36.1835 18.5565 36.1616 18.5374 36.1402C18.2193 35.8039 17.9648 35.7586 16.4379 35.7651L15.579 35.7651L14.2429 35.8104C14.0026 35.7665 13.8233 35.7105 13.7228 35.6481C13.6223 35.5857 13.6042 35.519 13.6703 35.4547C13.8117 35.3422 13.8117 35.2243 13.6703 35.1119C13.5054 35.0476 13.4565 34.9736 13.5321 34.9027C13.6076 34.8318 13.8028 34.7685 14.0839 34.7239C14.3065 34.6851 14.2747 34.5881 14.3702 34.5169C14.4544 34.4256 14.6344 34.3391 14.8979 34.2632C15.1614 34.1873 15.5021 34.1239 15.897 34.0771C17.0515 33.9201 18.1182 33.738 19.0782 33.5339L18.8873 33.5339C19.9494 33.4409 20.9195 33.3094 21.7503 33.1459C22.5774 32.9713 23.6909 32.8484 24.5816 32.6867C25.3239 32.5885 25.8488 32.4354 26.0449 32.2599C26.2357 32.0917 27.1901 31.9882 27.9217 31.9106C28.3559 31.866 28.7709 31.8141 29.1624 31.7554C29.6745 31.6504 30.3481 31.5842 31.0711 31.5679C31.2884 31.5636 31.4965 31.548 31.6755 31.5226C33.4252 31.3092 35.1747 31.1022 36.8926 30.8759C37.2817 30.8093 37.7562 30.7666 38.2604 30.753C38.4727 30.748 38.6726 30.7299 38.8331 30.7013C41.5052 30.2615 44.6227 29.964 47.2312 29.5113C47.543 29.4478 47.8963 29.3934 48.2811 29.3496C49.1562 29.2716 49.8822 29.1376 50.3488 28.968C50.6009 28.8773 50.9433 28.7982 51.3541 28.7359C51.7648 28.6735 52.235 28.6292 52.7346 28.6059C53.5582 28.5518 54.2946 28.4535 54.8659 28.3213C56.0049 28.1119 57.2169 27.9195 58.4925 27.7457C58.886 27.6977 59.2198 27.6318 59.4681 27.5533C59.7163 27.4748 59.8723 27.3858 59.9239 27.293C59.5422 27.2025 59.1923 27.2348 58.8742 27.293C57.6018 27.4418 56.3293 27.584 55.0886 27.7457C53.9636 27.862 52.898 28.0006 51.9075 28.1596C51.421 28.2489 50.7806 28.2954 50.1261 28.289C49.322 28.2773 48.526 28.3282 47.8993 28.4313C47.4314 28.5015 46.9306 28.5621 46.4041 28.6123C46.0604 28.6313 45.6981 28.6313 45.3544 28.6123C45.2168 28.6024 45.0705 28.5985 44.9249 28.6007C44.7793 28.6029 44.6377 28.6113 44.509 28.6253C44.3803 28.6393 44.2672 28.6586 44.1773 28.682C44.0873 28.7054 44.0224 28.7323 43.9865 28.7611C43.6048 29.0133 42.4914 29.0715 41.5688 29.1815C40.0419 29.065 39.1194 29.3949 37.7515 29.4013C37.6445 29.4041 37.5413 29.4113 37.4483 29.4224C37.3554 29.4335 37.2745 29.4483 37.2107 29.466C34.793 29.9252 31.8664 30.2485 29.2897 30.656C29.0062 30.7022 28.6645 30.7314 28.3035 30.7401C25.9427 30.7936 23.7648 31.0242 22.1957 31.3868C22.0027 31.4268 21.7766 31.4597 21.5277 31.4838C20.3557 31.5385 19.2649 31.6493 18.3466 31.8072C16.8833 32.0076 15.4836 32.2146 13.9884 32.4021C12.9486 32.5136 12.071 32.6786 11.4435 32.8807C11.4435 32.926 10.9663 32.9454 10.6163 32.9907C10.3619 32.913 10.1392 32.8419 9.88475 32.7772C9.64065 32.6871 9.30407 32.6087 8.89792 32.5473C8.49177 32.486 8.02557 32.4431 7.53074 32.4215C6.70364 32.4215 6.54451 32.2728 7.05349 32.137C8.34332 31.744 10.0499 31.4147 12.0479 31.1734C13.7021 30.9405 15.3881 30.7077 17.0741 30.4878C18.0603 30.365 19.11 30.255 20.0643 30.1257C20.3926 30.0942 20.7331 30.0682 21.0823 30.0481C21.514 30.0295 21.9243 29.9944 22.2912 29.9446C23.4478 29.743 24.7731 29.5853 26.204 29.4789C26.7211 29.4264 27.2113 29.3636 27.6673 29.2914C28.7412 29.1113 29.9287 28.9613 31.1983 28.8452C31.9856 28.7695 32.7411 28.6808 33.457 28.58C33.7115 28.5477 33.9023 28.4895 34.1568 28.4765C36.4154 28.3989 37.8469 28.0173 39.8192 27.8298C40.7685 27.7205 41.6634 27.5927 42.4914 27.4482C44.1323 27.215 45.8312 26.9992 47.5812 26.8015C49.9034 26.5558 52.003 26.2259 54.1979 25.9478C54.6315 25.8934 55.0461 25.8328 55.4386 25.7668C57.3398 25.429 59.4459 25.1421 61.7055 24.9131C62.2149 24.8539 62.6585 24.7739 63.0089 24.6782C63.3592 24.5825 63.6086 24.4731 63.7413 24.3569C63.7853 24.2839 63.6946 24.2102 63.4869 24.1499C63.1586 24.082 62.7961 24.0213 62.4053 23.9689L49.9034 25.3917C49.3765 25.4479 48.8667 25.5106 48.3765 25.5792C46.9352 25.782 45.4376 25.9677 43.8911 26.1354C42.3641 26.3035 40.9326 26.517 39.4693 26.711C39.0379 26.7675 38.592 26.8194 38.1332 26.8662C35.022 27.1625 32.014 27.5017 29.1306 27.8815C27.9217 28.0497 26.5857 28.1726 25.345 28.3278C24.1044 28.483 22.4184 28.7158 20.955 28.9163L16.4379 29.563C15.5472 29.6859 14.6882 29.8217 13.8293 29.9511C12.5569 29.66 12.1433 29.6083 10.6482 29.6148C10.134 29.6118 9.62643 29.6387 9.18489 29.6924C7.817 29.9252 6.00375 30.0287 4.69948 30.2356C3.90166 30.3394 3.25393 30.4845 2.82262 30.656C2.44383 30.7963 1.99615 30.9285 1.4865 31.0505C-0.167688 30.8823 -0.422144 30.656 0.627631 30.4038C0.913933 30.3391 1.32748 30.2874 1.51834 30.2097C1.62701 30.1636 1.78711 30.1232 1.98588 30.0917C2.18465 30.0603 2.41659 30.0387 2.66351 30.0287C3.43636 29.9844 4.1385 29.8997 4.69948 29.7829C5.22072 29.66 5.88901 29.5664 6.63993 29.5113C7.21253 29.5113 7.62612 29.3367 8.07148 29.2397C8.51684 29.1427 8.86673 29.0327 9.6302 29.0133C9.77069 29.0111 9.90682 29.0024 10.0281 28.9878C10.1494 28.9732 10.2527 28.9532 10.3301 28.9292C11.0763 28.7648 12.0027 28.6386 13.034 28.5606C14.5976 28.4055 16.0351 28.2027 17.2967 27.9591C18.0436 27.7971 18.656 27.6114 19.11 27.4094C19.2297 27.3465 19.4268 27.2908 19.6826 27.2477C20.9962 27.0887 22.4591 26.9873 23.9771 26.9503C24.5511 26.9403 25.1171 26.9164 25.6632 26.8791C26.7886 26.8088 27.8596 26.7064 28.8443 26.5752C30.2693 26.373 31.7689 26.1936 33.3297 26.0384C34.291 25.9388 35.2065 25.8219 36.0654 25.6891C36.9509 25.5579 37.9126 25.4493 38.9285 25.3658C39.9336 25.2724 40.7842 25.1219 41.378 24.9325C41.563 24.8497 41.7017 24.7629 41.7915 24.6738C40.2364 24.6478 38.6905 24.7425 37.4651 24.9389C36.988 24.9907 36.6062 25.0618 36.0654 25.0424L36.0654 25.0748C35.9771 25.1084 35.831 25.1342 35.655 25.1473C35.479 25.1604 35.2854 25.1599 35.1111 25.1459C35.1111 25.023 35.1111 24.9066 35.1111 24.8225C36.0596 24.7018 36.9731 24.5701 37.847 24.428C38.5786 24.2987 39.692 24.3569 40.2964 24.1887C41.6007 24.1047 42.3323 23.8589 43.4775 23.736C44.6227 23.6132 45.927 23.5614 47.0722 23.4385C48.0652 23.319 49.0213 23.1873 49.9352 23.044C50.2443 22.9821 50.6123 22.9337 51.0168 22.9018C51.5913 22.8683 52.1079 22.8027 52.5074 22.7123C52.9068 22.622 53.173 22.5105 53.2754 22.3909C53.0845 22.3197 52.8301 22.2292 52.5438 22.1386C52.903 21.9793 53.5054 21.8478 54.2615 21.7635L55.3114 21.6083C55.5916 21.5711 55.7907 21.5135 55.8677 21.4473C55.9447 21.3811 55.8936 21.3114 55.7249 21.2526C53.5299 21.1491 53.4345 21.1168 52.0984 21.576L50.0942 21.7377L50.1261 21.7312ZM76.9749 19.0408L76.8159 19.0408L76.9749 19.0408ZM340.532 25.7603L340.532 25.8314L340.532 25.7538L340.882 25.7538L340.882 25.7085L340.532 25.7603ZM278.277 3.47419C277.779 3.46772 277.28 3.46772 276.782 3.47419C276.655 3.48232 276.539 3.49655 276.445 3.51569C276.351 3.53483 276.281 3.55831 276.241 3.58414C276.241 3.66174 276.527 3.67468 276.782 3.67468C277.104 3.67755 277.425 3.66289 277.71 3.63219C277.995 3.6015 278.235 3.55588 278.404 3.50006L278.659 3.43539L278.277 3.47419ZM49.9988 55.0051C50.3084 54.9739 50.5971 54.9348 50.8578 54.8887C52.003 54.6624 53.0845 54.4166 54.2615 54.1903C55.7111 53.8354 57.4292 53.5298 59.3514 53.2848C60.1037 53.1918 60.7106 53.0573 61.101 52.8968C61.3379 52.8068 61.6626 52.7276 62.0553 52.664L67.0179 51.7844C67.3128 51.7069 67.5586 51.6222 67.7496 51.5322C67.2724 51.5322 66.9543 51.5322 66.7635 51.5322C66.3908 51.5778 66.0837 51.6425 65.8727 51.7198C65.6602 51.8301 65.2514 51.9201 64.7275 51.972C64.2006 52.0283 63.6908 52.0909 63.2006 52.1595C62.2781 52.2953 61.3555 52.4441 60.4329 52.5864C60.1784 52.8451 59.065 52.9033 58.1425 53.0132L57.4427 53.1232C55.1946 53.5596 53.0704 54.0217 51.0804 54.5071C50.6934 54.5965 50.372 54.6966 50.1261 54.8046C50.0475 54.8727 50.0475 54.9435 50.1261 55.0116L49.9671 55.0116L49.9988 55.0051ZM163.025 60.1142C163.591 60.0485 164.187 59.9944 164.806 59.9526C165.288 59.9312 165.75 59.8941 166.174 59.8426C168.547 59.5534 171.05 59.3109 173.65 59.1183C173.991 59.0966 174.313 59.0638 174.604 59.0213L176.64 58.685C177.276 58.5686 177.276 58.5427 176.64 58.2905C176.216 58.2844 175.791 58.2844 175.367 58.2905C175.113 58.2905 174.699 58.2905 174.636 58.3552C174.159 58.575 173.109 58.6268 172.25 58.7173C169.769 58.9889 167.192 59.2347 164.679 59.4934C164.146 59.545 163.635 59.6056 163.152 59.6745C162.849 59.7125 162.581 59.7606 162.357 59.8167C162.289 59.8289 162.235 59.8438 162.198 59.8605C162.16 59.8773 162.141 59.8954 162.141 59.9138C162.141 59.9321 162.16 59.9502 162.198 59.967C162.235 59.9837 162.289 59.9986 162.357 60.0108C162.595 60.0531 162.863 60.088 163.152 60.1142L163.025 60.1142ZM157.076 11.1637L159.462 10.7822C159.748 10.7369 159.971 10.6593 160.289 10.6334C161.965 10.4559 163.482 10.2219 164.774 9.94143C165.211 9.83987 165.74 9.75642 166.333 9.69567C168.146 9.50747 169.826 9.27035 171.327 8.99075C172.311 8.83708 173.217 8.66375 174.031 8.47337C174.089 8.448 174.118 8.42043 174.118 8.39253C174.118 8.36462 174.089 8.33705 174.031 8.31169C174.01 8.29348 173.97 8.2764 173.914 8.26164C173.858 8.24688 173.786 8.23478 173.704 8.22617C173.623 8.21756 173.533 8.21266 173.441 8.21179C173.349 8.21092 173.258 8.21411 173.172 8.22114C172.051 8.28108 171.016 8.3941 170.15 8.55097C169.352 8.70475 168.478 8.84129 167.542 8.95841C166.651 9.08129 166.11 9.28824 164.965 9.35291C164.485 9.38891 164.081 9.45743 163.82 9.54693C163.286 9.70977 162.486 9.82892 161.561 9.88322C161.011 9.92239 160.496 9.97915 160.034 10.0514C158.921 10.2389 157.871 10.4459 156.853 10.6464C156.53 10.7052 156.178 10.7572 155.803 10.8016L150.523 11.4483C149.25 11.597 147.978 11.7393 146.737 11.901C145.712 12.0136 144.779 12.1575 143.97 12.3278C143.106 12.5086 142.146 12.6692 141.107 12.8064C139.516 13.0651 137.925 13.3044 136.176 13.5501C135.062 13.7118 133.917 13.867 132.74 14.0093C132.135 14.0625 131.648 14.1592 131.372 14.2809C131.213 14.3715 130.736 14.3844 130.354 14.4232C128.286 14.5671 126.397 14.801 124.819 15.1087C124.619 15.1507 124.395 15.1877 124.151 15.2187C122.592 15.4386 120.97 15.652 119.475 15.8654C119.084 15.9276 118.722 15.9969 118.393 16.0724C118.452 16.1104 118.581 16.1424 118.753 16.1616C118.924 16.1809 119.126 16.186 119.316 16.1758C120.792 16.0947 122.19 15.9636 123.451 15.7878C125.539 15.4729 127.753 15.1939 130.068 14.9535C131.875 14.7866 133.473 14.539 134.744 14.2292C135.74 13.9913 137.112 13.8312 138.625 13.7765C139.277 13.7606 139.888 13.7041 140.375 13.6148C140.841 13.5225 141.392 13.4499 141.997 13.4014C143.269 13.2918 144.475 13.1529 145.592 12.9875C146.674 12.8064 147.66 12.593 148.773 12.4119C149.887 12.2308 151.604 11.998 152.972 11.7652C154.34 11.5324 155.708 11.3319 157.076 11.1637ZM55.5976 21.8799C55.8203 22.0481 56.3294 22.0998 56.8383 22.0804C58.6185 22.0628 60.3145 21.9213 61.6418 21.6795C62.3374 21.5073 63.3246 21.3943 64.4094 21.3626C65.6651 21.3113 66.7916 21.1716 67.5905 20.9681C67.7892 20.9241 67.9313 20.8707 68.0041 20.8128C68.0041 20.774 68.0041 20.7029 68.0041 20.69C67.8999 20.672 67.7769 20.6592 67.6446 20.6525C67.5122 20.6458 67.374 20.6453 67.2406 20.6512L61.61 21.2268L60.6238 21.3173C58.8033 21.4454 57.1036 21.6357 55.5976 21.8799ZM67.9723 23.2769C68.9903 23.4579 68.9902 23.4515 69.4673 23.4579C71.7454 23.4425 73.9538 23.2944 75.8296 23.0311C76.2456 22.9707 76.5839 22.8909 76.8159 22.7983C76.946 22.7716 77.0191 22.7356 77.0191 22.698C77.0191 22.6605 76.946 22.6245 76.8159 22.5978L76.0206 22.4814C74.7285 22.5664 73.4641 22.6679 72.235 22.7854C70.8035 22.9212 69.5628 23.0958 68.0995 23.2769L67.9723 23.2769ZM162.229 58.782C163.247 59.086 163.247 59.0795 164.647 58.9954C165.623 58.9381 166.555 58.8532 167.415 58.7432C168.464 58.6074 169.546 58.478 170.596 58.3487C170.856 58.3257 171.066 58.2839 171.184 58.2313C171.301 58.1788 171.318 58.1192 171.232 58.0641C171.06 58.0155 170.813 57.9801 170.53 57.9636C170.247 57.9472 169.945 57.9507 169.673 57.9736L169.101 58.0447C168.401 58.1223 167.669 58.1935 167.001 58.284C166.578 58.3631 166.071 58.4212 165.519 58.4537C164.967 58.4862 164.385 58.4923 163.82 58.4716L162.229 58.782ZM71.0262 20.2631C71.2778 20.305 71.5559 20.3398 71.8532 20.3666C72.9677 20.3994 74.1022 20.3463 75.0343 20.2179C75.4797 20.1661 75.8614 20.0691 76.3386 20.0627C77.1809 20.0248 77.98 19.9545 78.6927 19.8557C78.6927 19.8557 78.8835 19.8104 78.9472 19.7975L78.9472 19.5129C78.5789 19.4996 78.202 19.4996 77.8337 19.5129C76.6249 19.6099 75.4479 19.7264 74.2709 19.8363C73.0939 19.9462 72.6804 19.9786 71.9169 20.0627C71.5882 20.1234 71.2899 20.1905 71.0262 20.2631ZM62.5643 56.8483L64.3776 57.1716C64.8984 57.1478 65.3667 57.0901 65.7112 57.0072C66.0557 56.9243 66.2576 56.8208 66.2862 56.7125C66.3892 56.649 66.3673 56.5798 66.225 56.5195C66.0826 56.4592 65.8309 56.4125 65.5228 56.3891C65.2189 56.3526 64.8815 56.3292 64.5313 56.3203C64.1811 56.3114 63.8256 56.3172 63.4869 56.3374L62.5643 56.8483ZM73.9528 52.3212C72.9018 52.3726 71.9226 52.4722 71.0898 52.6122C70.5864 52.742 69.8579 52.8276 69.0539 52.8515C67.584 52.8803 66.2267 53.0241 65.2683 53.2525C65.2683 53.2525 65.2683 53.3301 65.1092 53.3754C64.9501 53.4207 65.65 53.3754 65.8091 53.3754C66.9225 53.2719 68.0359 53.1555 68.9902 53.0391C69.5763 52.9545 70.2056 52.8829 70.8671 52.8257C71.7801 52.7527 72.6289 52.65 73.3802 52.5217C73.3802 52.5217 73.6665 52.4635 73.9528 52.3277L73.9528 52.3212ZM166.619 8.74499C166.087 8.71129 165.525 8.70251 164.974 8.71931C164.423 8.73612 163.898 8.77806 163.438 8.842C163.084 8.88689 162.813 8.9545 162.669 9.03415C162.525 9.11379 162.516 9.20093 162.643 9.28177C163.025 9.28177 163.534 9.28177 163.82 9.28177C164.742 9.14596 165.506 8.98428 166.619 8.74499ZM260.781 4.53482C260.354 4.50751 259.898 4.50515 259.465 4.52802C259.032 4.5509 258.639 4.59807 258.331 4.66416C258.172 4.6965 258.331 4.77411 258.331 4.83231C258.32 4.8472 258.328 4.86246 258.355 4.87649C258.382 4.89052 258.427 4.90281 258.486 4.91207C258.544 4.92132 258.614 4.92721 258.688 4.92911C258.761 4.93101 258.836 4.92884 258.904 4.92285C259.34 4.89866 259.739 4.85293 260.066 4.78974C260.394 4.72654 260.639 4.64785 260.781 4.56069L260.781 4.53482ZM267.398 4.85171C267.313 4.81168 267.161 4.77918 266.968 4.76017C266.775 4.74117 266.555 4.73693 266.348 4.74824C265.996 4.79601 265.685 4.85497 265.425 4.92285C265.139 4.98753 265.425 5.09747 265.871 5.12334C266.058 5.13245 266.254 5.13253 266.442 5.12358C266.63 5.11462 266.805 5.09688 266.953 5.07177C267.101 5.04665 267.219 5.01485 267.296 4.9789C267.373 4.94294 267.408 4.90382 267.398 4.86465L267.398 4.85171ZM86.9 18.5493C85.9138 18.504 85.2458 18.6463 84.4506 18.6851C83.6553 18.7239 83.4644 18.7433 83.6234 18.8403C83.7825 18.9374 84.2915 18.8403 84.6414 18.8403C85.1136 18.8392 85.575 18.8114 85.9739 18.76C86.3727 18.7086 86.6934 18.6357 86.9 18.5493ZM288.902 21.188C288.407 21.2169 287.927 21.2559 287.471 21.3044C287.42 21.3289 287.394 21.3553 287.394 21.382C287.394 21.4086 287.42 21.435 287.471 21.4596C287.471 21.4596 287.82 21.5048 288.011 21.5048C288.711 21.4984 288.679 21.369 288.902 21.188ZM364.359 27.7522C364.74 27.8233 364.931 27.8815 365.217 27.9009C365.346 27.9035 365.475 27.9002 365.596 27.8913C365.718 27.8823 365.827 27.868 365.917 27.8492C366.013 27.7993 366.013 27.7439 365.917 27.694C365.917 27.694 365.536 27.6358 365.408 27.6487C365.04 27.6748 364.687 27.7095 364.359 27.7522ZM71.1216 19.7393C70.3899 19.7393 69.69 19.7393 69.2765 19.9204C70.4217 19.888 70.4217 19.888 71.1216 19.7393ZM82.7327 19.2736C81.9374 19.1637 81.5239 19.2025 81.2057 19.2736C81.1386 19.2897 81.0991 19.3098 81.093 19.3308C81.087 19.3519 81.1148 19.3727 81.1723 19.3903C81.2299 19.4078 81.3139 19.4211 81.4118 19.428C81.5096 19.435 81.616 19.4353 81.7147 19.4289C82.0767 19.3836 82.4175 19.3316 82.7327 19.2736ZM118.202 14.3003C118.202 14.268 118.202 14.2292 118.011 14.2292C117.958 14.223 117.898 14.2197 117.837 14.2197C117.775 14.2197 117.715 14.223 117.662 14.2292C117.662 14.2292 117.662 14.268 117.662 14.2939L118.202 14.3003ZM168.496 60.7998L168.114 60.8838L168.305 60.8838L168.782 60.8321L168.496 60.7998ZM287.63 1.45641C287.471 1.45641 287.312 1.45641 287.312 1.50168C287.284 1.51268 287.269 1.52488 287.269 1.53725C287.269 1.54963 287.284 1.56183 287.312 1.57282C287.312 1.57282 287.534 1.57282 287.63 1.57282L287.63 1.45641ZM264.725 5.091C264.627 5.10251 264.54 5.1179 264.471 5.13627C264.471 5.13627 264.471 5.17508 264.471 5.17508L264.789 5.17508L264.725 5.091ZM68.0359 42.4393C67.9101 42.4337 67.7799 42.4337 67.6542 42.4393L67.4951 42.4393C67.4951 42.4393 67.6859 42.4781 67.7813 42.4781C67.8768 42.4781 67.9405 42.4522 68.0359 42.4393Z" fill="rgb(223,105,81)" fill-rule="nonzero" transform="matrix(0.992417,0.122914,-0.509842,0.860268,19.1617,-27.3938)" />
	</g>
</svg>
