<svg viewBox="0 0 16 16" xmlns="http://www.w3.org/2000/svg" xmlns:xlink="http://www.w3.org/1999/xlink" width="16.000000" height="16.000000" fill="none">
	<rect id="instagram 1" width="16.000000" height="16.000000" x="0.000000" y="0.000000" fill="rgb(255,255,255)" fill-opacity="0" />
	<g id="Group">
		<g id="Group">
			<path id="Vector" d="M13.6562 0L2.34375 0C1.05156 0 0 1.05156 0 2.34375L0 13.6562C0 14.9487 1.05156 16 2.34375 16L13.6562 16C14.9487 16 16 14.9487 16 13.6562L16 2.34375C16 1.05156 14.9487 0 13.6562 0ZM15.0625 13.6562C15.0625 14.4316 14.4316 15.0625 13.6562 15.0625L2.34375 15.0625C1.56844 15.0625 0.9375 14.4316 0.9375 13.6562L0.9375 2.34375C0.9375 1.56844 1.56844 0.9375 2.34375 0.9375L13.6562 0.9375C14.4316 0.9375 15.0625 1.56844 15.0625 2.34375L15.0625 13.6562Z" fill="rgb(255,255,255)" fill-rule="nonzero" />
		</g>
		<g id="Group">
			<path id="Vector" d="M13.1562 1.90625C12.6394 1.90625 12.2188 2.32687 12.2188 2.84375C12.2188 3.36063 12.6394 3.78125 13.1562 3.78125C13.6731 3.78125 14.0938 3.36063 14.0938 2.84375C14.0938 2.32687 13.6731 1.90625 13.1562 1.90625Z" fill="rgb(255,255,255)" fill-rule="nonzero" />
		</g>
		<g id="Group">
			<path id="Vector" d="M8 3.78125C5.67375 3.78125 3.78125 5.67375 3.78125 8C3.78125 10.3263 5.67375 12.2188 8 12.2188C10.3263 12.2188 12.2188 10.3263 12.2188 8C12.2188 5.67375 10.3263 3.78125 8 3.78125ZM8 11.2812C6.19063 11.2812 4.71875 9.80937 4.71875 8C4.71875 6.19063 6.19063 4.71875 8 4.71875C9.80937 4.71875 11.2812 6.19063 11.2812 8C11.2812 9.80937 9.80937 11.2812 8 11.2812Z" fill="rgb(255,255,255)" fill-rule="nonzero" />
		</g>
	</g>
</svg>
